<?xml version="1.0" encoding="UTF-8"?>
<svg version="1.1" viewBox="0 0 632.38 529.5" xmlns="http://www.w3.org/2000/svg">
 <g transform="translate(-43.426 -223.03)">
  <g transform="matrix(7.2361 0 0 7.2361 -1769.8 -2662)">
   <path d="m251.21 456.3s16.96-56.841 44.081-57.109c22.598-0.2233 42.074 53.602 42.074 53.602l-31.557 18.533-54.598-15.027z" fill="#fff" stroke="#000" stroke-width="1px"/>
   <path d="m251.21 456.3l4.6927-12.77c-3.4788 1.673 28.297 16.772 46.475 10.626 12.499 2.0234 29.398-10.262 29.849-13.425l5.1387 12.063-31.557 18.533-54.598-15.027z"/>
   <path d="m310.3 431.91c-10.671 5.1114 3.1881 30.609 3.113 34.499l13.272-7.5078c-0.33085-3.523-9.188-29.951-16.385-26.991z" stroke="#000" stroke-width=".82"/>
   <path d="m283.89 416.63c-0.95374-0.0602-3.9108 2.1379-5.502 5.4404 0.1925-0.15048 0.38279-0.26874 0.57159-0.35283 0.55195-0.24589 1.1028-0.18014 1.5518 0.0976 0.44905 0.27771 0.81269 0.74177 1.1278 1.2944 0.81022 1.4208 1.3056 3.4736 1.5586 4.7672 0.14145-4.2842-0.21403-7.7864 0.69218-11.247zm-0.69218 11.247c-0.0583 0.30053-0.11628 0.60083-0.17365 0.90079l-0.23624-0.22642c0.014 0.0854 0.029 0.17568 0.0368 0.22612l-6.8956-1.7672c0.63451-1.4675 1.2278-2.5625 1.7629-3.3439l-0.17734-0.16997c0.26585-0.48114 0.56034-0.9584 0.87318-1.4258-0.93299 0.72936-1.9201 2.274-3.0672 5.0087-0.0602 0.14341 0.0205 0.30689 0.17089 0.34639l7.5972 1.947c0.17697 0.046 0.34368-0.10312 0.31755-0.28411 0 0-0.068-0.49253-0.20864-1.2116zm-5.5057-4.2107 5.0958 4.885c-0.14548-0.88467-0.62679-3.4946-1.5926-5.1885-0.29083-0.51001-0.62096-0.90604-0.9548-1.1125-0.33382-0.2064-0.6564-0.25063-1.0744-0.0644-0.41286 0.1839-0.91115 0.65854-1.4739 1.4804z"/>
   <path d="m310.02 432.89c-9.9725 4.9699 2.9794 29.762 2.9093 33.543l12.404-7.2999c-0.30919-3.4255-8.5868-29.122-15.313-26.244z" stroke="#fff" stroke-width=".78166"/>
   <path d="m298.26 424.86 14.427 42.361 1.938-37.864-16.365-4.4964z" fill="#fff" stroke="#000" stroke-width=".98209px"/>
   <path d="m316.57 418.71 12.705 38.811 3.6606-34.314-16.365-4.4964z" fill="#fff" stroke="#000" stroke-linejoin="round" stroke-width=".98209px"/>
   <path d="m297.99 424.56 17.224 4.811 17.288-6.1639-15.823-4.8846-18.689 6.2375z" stroke="#000" stroke-linejoin="round" stroke-width=".98209px"/>
   <path d="m294.22 399.43c-10.125 0.0467 8.1887 50.463 11.154 71.412" fill="none" stroke="#000" stroke-width="1px"/>
  </g>
  <path d="m293.34 249.15c40.261-8.9189 35.306 9.487 47.376 11.844 15.273-20.375 41.128-25.111 68.696-23.688-5.0802-12.256-105.38-10.587-116.07 11.844z" fill-rule="evenodd" stroke="#000" stroke-width="1px"/>
 </g>
</svg>
