<?xml version="1.0" encoding="UTF-8"?>
<svg viewBox="0 0 458.15839 661.55804" xmlns="http://www.w3.org/2000/svg">
 <g transform="translate(-61.086 -68.254)">
  <path d="m151.6 722.18c19.59-4.0992 37.905-7.5036 40.7-7.5654s7.5564-1.146 10.58-2.4093c6.3394-2.6488 10.87-1.0912 17.515 6.0212 4.7728 5.1088 10.668 5.2051 28.982 0.47341 10.027-2.5907 15.488-3.2388 20.282-2.4072 10.906 1.8917 22.901 2.4216 26.306 1.1619 1.8581-0.68737 4.0241-3.6844 5.1338-7.1036 1.0558-3.253 5.0268-12.134 8.8244-19.736 11.789-23.598 18.882-32.98 13.587-17.972-1.2867 3.6468-2.3368 10.898-2.3336 16.115 0.00832 13.617 3.0076 17.671 17.225 23.281 6.2799 2.4781 15.489 7.2516 20.465 10.608 10.584 7.1387 11.524 7.1053 30.442-1.0844 23.793-10.3 31.567-12.912 46.457-15.612 8.0913-1.4667 15.931-3.303 17.422-4.0808 3.9171-2.044 3.3956-7.1932-2.7085-26.747-3.9828-12.758-6.8478-19.027-10.813-23.659-5.1647-6.0338-9.3418-14.111-7.9943-15.459 0.35122-0.35121 1.34 1.3134 2.1972 3.6991s5.8319 9.2157 11.055 15.178c9.0561 10.338 15.261 21.213 22.006 38.568 7.1736 18.459 9.4696 21.79 15.359 22.287 5.2974 0.44676 31.039-7.5157 35.164-10.877 2.8067-2.2869 2.4115-7.9658-1.8762-26.96-5.4381-24.09-9.7216-37.109-13.665-41.531-4.7655-5.344-41.612-31.816-44.285-31.816-2.3192 0-12.738 7.8629-22.07 16.657-6.7211 6.3332-8.8736 4.6168-3.7206-2.9666 4.2813-6.3005 19.415-39.32 19.415-42.36 0-2.2229-18.701-18.565-24.292-21.228-2.6542-1.2642-5.5196-0.75878-13.255 2.3377-9.6746 3.873-10.041 3.9024-18.681 1.4976-4.847-1.3491-8.8127-3.2814-8.8127-4.294s2.0409-10.131 4.5354-20.264 7.7707-33.057 11.725-50.943 9.6324-41.928 12.618-53.426 8.5286-33.022 12.318-47.831 7.2202-27.46 7.6246-28.115c0.77278-1.2504 13.147-42.451 16.144-53.752 1.0404-3.9233 3.2552-7.5742 5.4788-9.0312 5.4328-3.5597 7.5614-11.627 6.3908-24.222-0.87971-9.4652-0.3903-12.623 4.2226-27.245 9.2696-29.384 9.7741-32.211 6.4115-35.926-1.9949-2.2043-4.4002-3.0721-7.6369-2.7554-5.2071 0.50946-6.4057 3.1729-15.54 34.531-5.7073 13.616-5.348 18.02-17.443 18.093-3.1689 0.36494-5.0701 2.071-7.4489 6.6843-4.2439 8.2303-9.2413 8.957-15.247 2.2172-4.0356-4.5293-4.9569-4.8456-12.322-4.2296-13.344 2.4054-19.711 8.9508-33.042-3.9314-2.5866-1.9124-8.141-5.5924-9.9772-9.1918s-7.6729-11.074-12.971-16.61c-16.39-17.128-13.712-19.349 0.10749-19.349 17.289-1.7541 13.298-8.7783 15.79-16.957 0.96509-3.1685 8.4071-2.9866 8.0034-4.9968-0.79476-10.809 1.4074-17.479 6.4905-21.019 2.8996-8.5119 0.2393-10.52 7.3244-12.857 6.4381-3.6853-7.6337-18.171-18.64-21.47-10.827-3.2454-12.42-8.5928-12.42-9.4196s-1.7573-3.8852-3.905-6.7963 1.0564-12.815 0.18974-16.033-3.1164-6.8398-4.9993-8.0469c-4.2831-2.7459-15.837-7.8577-45.745-16.436l-23.051-6.6113-11.018 2.6501c-24.681 5.9363-22.049 4.1137-26.581 18.406-4.4918 14.167-6.8147 38.83-4.1298 43.847 1.4778 2.7613 1.1357 2.9592-4.232 2.4473-3.7723-0.35975-8.0552 0.5733-12.097 2.6354-5.6214 2.8678-6.7575 4.4958-11.176 16.015-10.59 27.607-47.281 137-48.709 145.23-0.76762 4.4208 0.15387 7.4186 4.998 16.26 5.5414 10.114 6.5366 11.079 14.86 14.411 4.9063 1.9641 12.317 3.9734 16.468 4.465l7.547 0.89383-3.597 4.8265c-1.9783 2.6546-5.2531 9.7045-7.2772 15.667-3.1341 9.2318-3.7053 14.057-3.8497 32.52 8.4036 21.712 6.4052 42.744 5.5464 66.896l-1.3276 19.986c-1.6652 15.664-5.3809 27.16-14.448 52.491-4.2492 9.7521-5.7875 16.014-7.2281 29.423-1.0065 9.3689-3.0141 22.871-4.4613 30.004-1.5926 9.7482-3.8211 14.261-6.6148 16.984-2.6458 2.493-17.055 23.486-16.872 29.799 0.19524 6.7286 0.51093 6.605 8.5068 14.324 5.8792 5.6759 13.753 10.32 14.962 10.32s3.9209 2.631 6.0263 5.8466l3.8279 5.8466-6.6796 3.4693c-6.1983 3.2193-7.0068 3.3001-11.219 1.122-3.3105-1.7119-9.5323-2.3473-22.986-2.3473-16.961 0-19.355-0.37432-29.713-4.6457-14.445-5.9565-17.476-5.9037-22.225 0.38715-9.5091 12.597-14.739 24.85-15.837 37.104-1.0367 11.576-0.95681 11.988 2.623 13.501 10 4.2276 37.496 10.931 44.187 10.773 4.1315-0.09762 23.54-3.5314 43.129-7.6305zm86.862-54.926c-4.181-1.2684-9.5724-2.3061-11.981-2.3061-3.4763 0-4.8125-1.0374-6.4826-5.0329-2.8758-6.8797-6.0477-9.1516-14.034-10.052l-6.8028-0.76676-2.6646-11.044c-1.4655-6.0744-3.2417-12.143-3.947-13.486-2.0694-3.9391 11.563-52.512 18.65-66.449 1.5219-2.993 5.6296-13.048 9.1282-22.344 3.5065-9.3173 8.769-19.993 11.727-23.789 5.8712-7.5359 7.0746-10.7 10.903-28.67 4.3159-13.32 10.687-24.906 15.375-38.223 5.4604-17.6 15.064-21.573 16.637-21.504 24.566 1.6554 39.146 6.996 45.023 9.2207 1.9248 1.0015 3.7021 1.9872 3.9496 2.1903s-0.93284 2.722-2.623 5.5974c-5.0005 8.507-20.026 46-22.005 49.572l-6.152 7.2939-5.9951 7.3528c-9.6598 15.232-9.9771 23.124-1.308 32.529 7.0946 7.6967 13.059 11.406 18.586 11.56 2.2957 0.06387 6.3786 3.2281 11.49 8.9043l7.9284 8.8053-5.6056 8.4309c-5.3367 8.0265-6.1998 8.6208-17.994 12.389-6.8138 2.1768-13.26 4.5215-14.324 5.2105-1.3755 0.89025-1.9357 6.7575-1.9357 20.274v19.021l-9.4142 2.8504c-9.3547 2.8324-9.449 2.9195-14.922 13.787-4.3777 8.6928-12.29 21.093-13.401 21.002-0.11184-0.00923-3.6242-1.0545-7.8052-2.3229zm125.83-119.49c-0.81913-0.99806-4.1746-2.2684-7.4566-2.8228-7.609-1.2855-9.0904-3.1526-16.209-20.428l-5.8615-14.225 3.9002-6.6805c2.1451-3.6743 6.6802-11.559 10.078-17.521s10.532-17.46 15.854-25.552c16.813-25.562 24.714-41.719 24.675-50.458-0.03775-8.4512-4.6727-20.303-8.5168-21.778-33.411-14.174-46.234-23.432-73.009-34.077-5.8192-1.4836-11.169-3.1836-11.889-3.778s2.194-6.22 6.4746-12.501c5.2339-7.6803 7.1822-15.273 10.329-21.558 3.2449-6.4802 3.4717-6.6569 7.1542-8.9027 2.6224-1.5992 5.2294-1.5071 8.1398-2.4676 4.1487-1.3692 8.804-0.459 16.584 1.3749 5.4581 1.2866 14.005 2.3495 18.992 2.3621 7.8106 0.01971 9.9198 0.69704 15.205 4.8827 5.7875 4.5838 6.6808 4.8089 15.728 3.9641 13.205-1.2331 14.6-1.9961 18.796-10.276 2.7562-5.4392 5.2757-7.9801 10.045-10.131 11.461-5.1681 11.465-5.2194-4.6592 54.943-1.4838 5.5362-5.5565 21.216-9.0504 34.843s-7.7434 28.262-9.4432 32.52c-6.3074 15.803-22.971 82.083-29.727 118.24-1.9658 10.521-3.8152 17.489-4.1097 15.486s-1.2057-4.4593-2.0249-5.4574z"/>
 </g>
</svg>
