<?xml version="1.0" encoding="UTF-8"?>
<svg enable-background="new -0.258 -0.548 123.547 123.539" viewBox="-0.258 -0.548 123.547 123.539" xmlns="http://www.w3.org/2000/svg">
 <path d="m109.66 123.28c8.125 0 14.742-6.586 14.742-14.742v-94.047c0-8.148-6.617-14.742-14.742-14.742h-94.015c-8.156 0-14.773 6.594-14.773 14.742v94.047c0 8.156 6.617 14.742 14.773 14.742h94.015z" fill="#231f20"/>
 <path d="m15.641 2.246c-6.766 0-12.266 5.492-12.266 12.25v94.047c0 6.734 5.5 12.234 12.266 12.234h94.016c6.758 0 12.25-5.5 12.25-12.234v-94.047c0-6.758-5.492-12.25-12.25-12.25h-94.016z" fill="#fff"/>
 <path d="m64.023 25.488c4.562 0 8.25-3.711 8.25-8.281 0-4.562-3.688-8.25-8.25-8.25s-8.273 3.688-8.273 8.25c0 4.57 3.711 8.281 8.273 8.281z" fill="#231f20"/>
 <path d="m50.062,26.855c.32-1.273-.484-2.539-1.734-2.859l-6.883-1.656c-1.289-.297-2.562.461-2.852,1.727l-5.788,23.953c-.32,1.273.461,2.539 1.734,2.859l6.906,1.656c1.25.32 2.539-.461 2.836-1.734l5.781-23.946z" fill="#231f20"/>
 <path d="m81.844,112.035c0,.047-.023.094-.023.117 0,1.055.859,1.906 1.906,1.906 .953,0 1.758-.734 1.875-1.656l13.875-75.219v-.148c0-1.023-.836-1.883-1.883-1.883-.953,0-1.688.734-1.883,1.664l-13.867,75.219z" fill="#231f20"/>
 <path d="m35.711,107.105c-.078.391-.102.781-.102,1.172 0,3.219 2.594,5.805 5.812,5.805 2.641,0 4.859-1.758 5.57-4.148l9.984-41.336 9.516,41.094c.609,2.539 2.906,4.391 5.609,4.391 3.227,0 5.812-2.586 5.812-5.805 0-.445-.047-.859-.125-1.273l-13.053-54.587 1.094-4.812 .859,3.781c.781,2.469 3.023,2.711 3.023,2.711l13.453,3.422c.266.047.539.07.805.07 2.195,0 3.977-1.758 3.977-3.953 0-1.883-1.289-3.469-3.047-3.883l-11.648-2.93-3.195-12.992c-1.516-7.25-8.445-7.078-8.445-7.078-6.734-.172-8.422,6.914-8.422,6.914l-17.477,73.437z" fill="#231f20"/>
</svg>
