<?xml version="1.0" encoding="UTF-8"?>
<svg enable-background="new 0 0 1548.1006 1657.1896" version="1.1" viewBox="0 0 1548.1006 1657.1896" xmlns="http://www.w3.org/2000/svg">
 <path d="m568.8 268.18c1.1932-16.368 7.2418-30.408 19.461-41.693 9.572-8.8403 18.48-18.462 30.176-24.679 2.438-1.2959 3.6856-3.2829 4.5981-5.8213 3.5118-9.769 7.9714-18.916 17.469-24.434 1.9473-1.1314 2.9908-3.0289 3.4627-5.0672 1.058-4.5704 5.8404-7.3175 5.6238-12.714-0.0806-2.0103 3.3483-3.5593 5.542-3.4599 4.2416 0.1924 5.2379-2.5368 5.8449-5.5255 0.871-4.2874 0.5809-8.0239-1.6895-12.503-4.7298-9.3315-6.9025-19.69-5.5902-30.427 0.4221-3.454 1.2116-7.0203 0.7464-10.385-0.5565-4.024 1.0909-6.3593 4.18-7.9242 3.7775-1.9137 5.0535-5.0302 5.7057-8.9279 2.9406-17.571 11.463-30.729 27.906-39.279 6.849-3.5614 13.928-4.1174 20.825-6.2393 4.3327-1.3331 8.7668 0.1298 12.715 2.4696 2.4279 1.439 4.9037 2.8153 7.8469 2.5143 18.446-1.8865 27.942 10.113 36.142 23.66 3.7405 6.1793 5.8992 13.232 7.5343 20.247 1.3075 5.6105 0.8111 49.984-2.5513 51.485-5.7962 2.5877-7.587 7.5921-9.7437 12.728-3.8615 9.1959-9.3195 17.698-11.417 27.669-0.9167 4.3571-4.1929 7.1138-8.2607 8.8764-3.8444 1.6658-7.65 3.4205-11.48 5.1191-4.7866 2.1227-5.0137 2.7981-1.4113 6.761 2.1853 2.4038 4.7704 4.4391 7.0992 6.7182 6.277 6.1431 5.9465 8.679 0.6224 15.739-4.325 5.7351-6.0333 13.613-3.3881 19.731 8.726 20.184 14.317 41.999 28.995 59.298 3.3123 3.904 6.0773 8.3212 9.67 11.929 8.5038 8.5384 10.581 18.899 9.1538 30.238-1.634 12.98-2.0188 25.986-1.5997 39.027 0.2178 6.776 0.6647 7.0181 7.3531 6.3414 5.2705-0.5334 20.159-3.8798 21.359-1.3374 1.925 4.0764 5.7285 5.2287 9.4928 6.3933 5.1281 1.5865 10.171 3.3179 14.907 5.9043 4.9519 2.7041 8.6974 6.2813 9.406 12.186 0.2912 2.4261 1.2906 4.3987 3.1688 5.4779-0.277 2.2977-1.8899 2.2375-3.033 2.9255-11.186 6.7326-13.233 21.845-3.4179 29.343 11.475 8.7663 21.121 19.892 33.612 27.24 14.016 8.2456 27.904 16.735 42.332 24.292 11.941 6.2535 23.314 13.568 35.647 19.112 3.0331 1.3636 6.1582 2.019 9.3838 2.5063 1.6834 0.2543 3.9418 0.4215 4.5974-0.8465 3.0153-5.8329 9.2811-7.4601 13.94-11.048 8.6076-6.6292 13.968-16.186 22.298-23.03 7.5189-6.1778 15.77-10.929 24.938-13.708 12.364-3.7475 24.087-8.1132 33.637-17.459 5.4788-5.3611 12.309-9.1527 20.183-10.5 1.8008-0.308 3.8314-0.8062 5.1925-1.9112 12.178-9.8872 27.9-12.757 40.939-20.798 10.215-6.2995 22.009-8.789 32.403-14.47 7.9089-4.3225 15.661-8.9446 23.351-13.649 4.2195-2.5812 8.6207-4.6185 13.376-5.8578 3.886-1.0129 7.421-2.6367 10.686-4.9812 7.0991-5.0969 15.148-5.9165 23.34-4.1003 5.5077 1.221 10.68 2.4976 16.404 0.7593 3.4855-1.0585 7.3657-0.3496 11.038 0.6434 4.1312 1.1172 7.8546 0.4658 10.571-3.2868 2.1349-2.9492 5.1691-3.7099 8.6376-3.4949 4.6635 0.2891 9.2853 0.0529 13.898-0.8894 3.6787-0.7514 7.4851-0.8455 11.011 0.6686 3.8438 1.6507 7.3221 0.8451 10.624-1.1379 7.7227-4.6375 16.144-5.7806 24.902-5.0923 5.6284 0.4424 11.204-0.0959 16.713-0.8862 4.0961-0.5876 7.4409 0.0999 9.9976 3.2827 4.2644 5.3089 9.924 6.2449 16.255 5.8955 8.3483-0.4607 16.723-1.094 24.986 1.0608 3.0742 0.8017 4.894-1.1318 6.0242-3.5952 1.842-4.0153 3.4219-8.1501 5.1655-12.212 4.2847-9.9801 11.163-17.655 20.749-22.764 4.4603-2.3769 8.9207-1.9864 11.71 0.7769 3.2335 3.2029 2.2152 6.8373 0.6519 10.362-6.4382 14.512-4.4253 28.96 0.2858 43.377 0.7246 2.2176 2.2485 3.4673 4.8208 2.7637 7.7726-2.1263 15.932-2.933 21.988-9.5221 4.9199-5.3532 11.42-8.5879 18.27-11.261 7.5754-2.9562 14.171-0.7357 20.641 2.6934 4.5647 2.4192 5.4225 7.0933 1.3495 10.206-12.001 9.1726-13.438 23.571-17.671 36.211-2.3448 7.0029 2.822 14.428 8.4191 19.596 6.3547 5.8668 7.7915 13.794 9.2131 21.342 0.8406 4.4651-0.8937 9.6254-0.2618 14.474 2.212 16.973 1.9829 33.87-1.0615 50.731-0.4952 2.7427-0.2059 5.7277-4.2076 6.0901-2.3708 0.2147-2.782 2.5452-2.7928 4.1622-0.0962 14.499-6.0247 28.195-5.7821 42.718 0.093 5.5823-3.2416 10.133-4.8298 15.177-3.2668 10.373-3.179 21.093-4.9711 31.588-2.412 14.125-0.8381 28.298 0.0715 42.423 0.4012 6.2336 1.5461 12.461 2.8489 18.586 2.2094 10.387 1.0845 20.895 1.3557 31.33 0.1021 3.9281-3.7755 29.494-5.822 39.04-3.1182 14.545-3.8389 29.451-6.9453 44.005-2.5605 11.997-9.4313 19.62-21.414 22.05-9.468 1.9197-17.306 5.4975-23.18 13.862-5.042 7.1793-13.122 9.1345-21.824 7.9129-5.2247-0.7335-10.808-0.045-15.17-4.0314-1.1971-1.0943-3.1543-1.9169-3.5529-3.2311-2.0378-6.7196-8.0471-7.9391-13.36-9.8679-4.6873-1.7016-8.3562-4.3473-12.154-7.603-3.5831-3.0718-8.4006-5.6194-12.879-7.1148-5.6838-1.8982-11.737-3.7958-18.238-2.64-6.4689 1.1501-12.71-0.0697-19.05-2.5889-10.126-4.0243-19.496-9.8433-30.126-12.628-1.3441-0.3521-3.0402-0.658-3.5332-2.0037-1.9603-5.352-7.0468-6.4189-11.326-8.5514-23.742-11.83-47.51-23.609-71.269-35.404-1.2511-0.6212-2.4751-1.3068-3.7589-1.8506-5.0588-2.1431-6.9213-1.7072-9.6246 3.2741-6.7723 12.479-13.492 24.995-19.865 37.68-3.0071 5.9843-7.2972 11.382-8.6138 18.193-2.1454 11.099-1.296 22.23-0.5859 33.375 1.021 16.023 4.3953 31.741 6.1152 47.658 1.3439 12.435-1.4874 24.642-5.4369 36.304-3.7227 10.993-8.1318 21.791-13.044 32.372-3.7803 8.1446-8.8239 15.29-14.616 22.008-1.8367 2.1302-3.6733 4.2545-4.5361 6.9673-5.6716 17.835-17.369 31.06-32.04 42.022-4.6859 3.5015-5.6995 5.8284-2.6754 10.5 13.59 20.992 21.362 44.944 34.069 66.356 4.2549 7.1698 8.1249 14.58 13.18 21.285 1.9307 2.5607 3.5956 5.5892 4.429 8.663 3.4944 12.889 11.201 23.394 18.972 33.77 10.881 14.529 20.07 30.125 29.813 45.379 3.6764 5.7565 6.1667 11.996 8.3186 18.399 2.3832 7.0916 5.424 13.834 9.4583 20.161 4.4207 6.9329 6.8474 14.754 9.467 22.471 1.6873 4.9707-0.8777 9.6235-1.1853 14.451-0.1896 2.9752-1.1112 5.9391-1.9664 8.8304-2.5315 8.5555-1.1869 17.186 0.6604 25.419 3.0453 13.574 5.6234 27.242 8.473 40.848 2.0082 9.5889 4.3795 19.072 7.5137 28.275 4.5101 13.243 7.0135 26.955 10.535 40.42 1.3075 4.9999 3.8517 9.4423 5.1622 14.415 0.8073 3.0629 1.2764 5.8551 0.203 8.8337-3.1162 8.6475-2.3394 17.203-0.2625 26.022 2.7058 11.492 6.3029 22.609 10.495 33.638 4.178 10.992 5.0685 22.58 2.4105 34.15-0.6759 2.942-0.439 5.4805 0.4938 8.1417 3.6836 10.51 4.9064 21.757 9.5939 31.966 0.0958 0.209 0.1564 0.4435 0.1854 0.672 2.1069 16.601-1.1989 19.304-15.583 17.961-12.532-1.1702-23.78-6.0851-33.568-14.198-10.024-8.3094-20.054-16.619-30.294-24.657-6.3169-4.9587-10.712-11.624-16.306-17.204-2.0035-1.9987-2.5548-4.5918-1.5079-7.119 2.2375-5.4019 3.0804-11.049 3.6187-16.792 0.8341-8.8961 7.3026-14.122 13.001-19.833 1.3131-1.3163 2.868-2.3979 4.1327-3.7544 3.5548-3.8131 2.9275-7.3815-2.0028-8.885-5.0808-1.5492-7.6073-4.2213-8.1584-9.722-0.3613-3.6078-3.3654-6.574-5.7045-9.4316-4.0581-4.9575-5.7542-10.456-5.3326-16.833 0.8281-12.53-1.3744-24.955-1.5375-37.457-0.0211-1.6184-0.5059-3.3718-0.0443-4.8315 2.1477-6.7937 0.4652-13.224-1.3698-19.701-0.9551-3.3713-1.6389-6.8289-1.3523-10.351 0.9938-12.211-1.1025-24.059-3.636-35.937-2.0779-9.7415-3.7512-19.492-6.6964-29.106-2.2539-7.3567-1.7026-15.551-4.2137-23.149-1.6218-4.9077-3.6345-9.514-6.3125-13.898-6.7892-11.115-13.51-22.272-20.272-33.404-7.2123-11.874-17.04-21.588-27.26-30.64-13.903-12.314-28.921-23.359-43.17-35.296-5.8569-4.907-10.915-10.761-16.406-16.113-12.297-11.986-23.316-25.262-36.643-36.211-11.057-9.0835-24.088-14.953-36.26-22.204-3.0034-1.7891-5.9371-3.5201-8.6127-5.7581-5.1018-4.2672-7.9024-4.2583-13.527-0.5623-3.0197 1.9844-5.8365 4.4518-6.873 7.6807-3.2574 10.148-10.662 18-14.68 27.678-0.4426 1.066-1.2332 1.9934-1.6358 3.0697-10.428 27.874-24.7 54.164-34.184 82.409-5.8348 17.378-11.54 34.838-16.229 52.545-2.4382 9.2065-4.3639 18.488-8.1655 27.278-0.9065 2.0957-1.4917 4.3932-1.2917 6.7986 1.2587 15.144-5.6191 27.476-13.71 39.365-1.3085 1.923-2.7856 3.7356-4.2459 5.55-3.6432 4.5269-6.71 9.1937-8.4221 14.988-1.4871 5.0331-5.1978 9.3705-7.0472 14.342-6.6219 17.801-12.018 35.974-15.934 54.594-1.0986 5.2236-2.2258 10.437-3.2236 15.684-0.5308 2.7917-1.1524 5.7333-0.3054 8.2935 1.6197 4.8961 1.929 9.4983-0.3872 14.187-0.3541 0.7168-0.838 1.3732-0.2864 2.4545 4.0615 7.9624 2.6193 16.909 4.3208 25.315 0.7496 3.7028 1.8983 7.1556 3.5085 10.54 1.5513 3.261 3.1334 6.2568 3.4086 10.308 0.2469 3.6329 3.6844 7.3303 6.3458 10.463 6.472 7.6183 13.008 15.207 20.291 22.09 2.2806 2.155 3.9379 4.6974 4.264 7.8127 0.964 9.2097 7.11 15.301 12.984 21.441 2.2442 2.3459 5.0766 4.2126 6.418 7.2465 3.7999 8.5942 9.7485 15.763 15.097 23.336 1.5794 2.2367 3.9683 4.4297 2.1899 7.4976-1.9468 3.3584-5.3637 4.5526-8.9785 4.2954-3.9182-0.2789-7.7803-1.2775-11.683-1.8551-13.822-2.046-27.203-6.0225-40.63-9.6588-10.578-2.8649-21.484-2.734-32.104-4.8469-3.1937-0.6354-6.4398-1.011-9.6276-1.672-3.0318-0.6285-6.353-1.7963-7.6964-4.4274-4.6579-9.1223-11.122-17.743-9.6835-28.944 0.3708-2.8883 1.8295-5.2385 3.4424-7.5402 2.0032-2.8584 3.6565-5.7346 4.1566-9.4054 0.9053-6.6467-1.246-11.289-7.7839-14.012-3.5679-1.4858-4.5943-5.3019-7.2124-7.1808-2.5522-1.8312-6.8624-9e-3 -9.7833-2.4659-2.8938-2.4343-5.4019-5.1621-6.2214-9.0187-0.2409-1.1345 0.1011-2.5967-0.497-3.4197-5.7146-7.8601-5.1765-16.945-5.7922-25.976-0.6396-9.3801 1.1877-17.775 6.0593-25.777 2.8607-4.6986 5.5677-9.5245 6.8554-15.06 0.9417-4.0485 2.6121-7.9467 4.1603-11.831 3.7806-9.486 7.4689-18.954 8.6756-29.24 0.4308-3.6719 2.0973-7.3649 4.4265-10.172 6.4134-7.7292 8.2233-17.167 10.123-26.432 1.4104-6.8784 3.5005-13.491 5.536-20.15 3.0211-9.8834 4.4329-19.884 3.7339-30.271-0.6859-10.192-0.1058-20.433-1.6497-30.621-1.5787-10.415 1.6069-20.492 4.6136-30.134 3.6285-11.637 5.149-23.602 7.8046-35.372 5.3301-23.623 7.5958-47.693 10.08-71.736 1.1451-11.082 3.7938-22.032 4.5786-33.124 1.1041-15.603 6.0455-30.527 7.4903-45.943 1.3505-14.411 2.1824-13.491-11.366-15.638-10.798-1.7112-21.388-4.55-30.99-10.19-7.4361-4.3676-15.972-4.7394-24.163-6.1444-3.9647-0.6801-7.6876-1.7047-11.327-3.2936-1.9131-0.8352-3.818-1.8468-5.8333-2.2635-8.7042-1.7999-10.233-0.3314-11.145 8.5217-0.593 5.7594-1.7316 11.515-3.2091 17.119-2.7325 10.364-3.9022 20.941-4.818 31.547-0.4084 4.7302-2.0997 9.059-3.2366 13.548-3.4908 13.785-3.6843 28.079-6.7567 41.924-1.8599 8.3809-3.5368 16.807-5.083 25.252-2.0436 11.161-3.9362 22.339-4.8181 33.683-1.2408 15.963-2.7752 31.904-4.2578 47.848-0.1704 1.8335-0.7169 3.6525-1.2629 5.4247-0.4725 1.5338-0.9655 3.1996-3.1218 3.1718-2.4659-0.032-3.1227-1.8793-3.3958-3.7207-0.3734-2.5177-0.5538-5.0928-0.5117-7.6381 0.1852-11.18 2.8521-22.097 3.4408-33.28 0.4117-7.8229 0.947-15.713 2.0005-23.548 0.6776-5.0398 0.942-10.262 2.0646-15.166 2.8073-12.262 3.0227-24.828 5.1119-37.159 0.6299-3.7184 2.2059-7.1118 2.8312-10.773 3.7496-21.961 9.1483-43.592 12.97-65.548 1.3923-7.9985 2.4382-16.051 3.9072-24.039 1.3766-7.4847 0.1948-8.3168-7.245-8.832-14.836-1.0277-29.495-3.4955-44.117-6.1455-5.4809-0.9935-10.954-1.96-16.374-3.3529-5.3625-1.3782-10.837-1.2751-16.518-0.7434-14.139 1.3235-28.337 0.9409-42.326-2.2189-4.7114-1.0642-8.9427-2.6183-11.1-7.4506-0.5682-1.2724-1.4773-2.1597-3.0546-2.5524-4.5074-1.1223-8.899-2.7369-13.43-3.7324-5.1337-1.1279-7.1981 0.4681-8.3021 5.6273-3.939 18.408-7.8952 36.813-11.82 55.225-0.2885 1.353-0.429 2.7438-0.553 4.1246-0.788 8.7727-1.9677 17.402-4.0977 26.046-2.8776 11.678-3.5992 23.862-7.2263 35.438-1.1112 3.5465-2.0901 7.1494-3.4543 10.598-1.8666 4.7189-6.9557 6.4507-11.52 4.181-2.9576-1.4705-3.7266-5.4058-1.4576-9.8291 7.8778-15.357 10.237-32.268 13.609-48.839 1.9496-9.5809 5.3773-18.727 7.1234-28.357 1.9839-10.941 4.2712-21.836 6.7258-32.699 1.5287-6.765 3.7909-13.397 4.5123-20.367 0.6376-6.1605 0.2149-7.2479-5.1926-9.7939-1.2621-0.5943-2.5452-1.3253-3.8901-1.5347-11.606-1.8074-20.682-9.0883-30.922-13.887-23.95-11.223-45.341-26.47-67.205-41.006-3.041-2.0219-6.4615-2.491-9.7653-3.4775-1.998-0.5965-3.6414 0.3968-4.7879 2.0651-1.1852 1.7245-2.4825 3.4122-3.3873 5.2822-3.8738 8.005-11.884 9.8776-19.055 12.95-1.2037 0.5157-2.9902 0.7685-4.0879 0.2518-5.9435-2.7982-8.0002 0.7908-10.487 5.2885-4.1876 7.5734-9.8753 14.076-16.533 19.681-5.5221 4.6491-10.719 9.7438-16.574 13.92-5.523 3.9401-8.6928 8.8355-9.509 15.429-0.6898 5.5724-2.2252 10.942-4.0772 16.211-2.1716 6.1783-3.5736 12.581-3.9532 19.028-0.3633 6.171-1.9907 11.89-3.8419 17.646-6.0563 18.833-10.088 38.091-12.152 57.766-0.1938 1.8479-0.2736 3.8119-0.9722 5.486-5.443 13.044-2.3325 26.69-2.8884 40.065-0.0833 2.0052 0.7184 4.1226 1.4302 6.0714 2.1888 5.993 2.2437 12.217 2.8927 18.469 1.2218 11.771 0.4281 23.678 2.9904 35.375 1.5305 6.9868 2.7778 14.219 2.2713 21.423-0.6643 9.4485 2.5821 17.759 8.2076 24.585 7.7443 9.3972 11.887 20.468 16.952 31.144 3.3969 7.1602 6.6663 14.346 11.276 20.851 3.3845 4.7755 5.8147 10.091 7.8526 15.553 2.5279 6.7747 5.549 12.982 10.707 18.462 6.4993 6.9052 11.232 15.365 18.449 21.815 2.7231 2.4336 3.8314 6.3485 4.7493 9.9869 2.8399 11.256 5.6761 22.515 8.3741 33.806 0.9321 3.9005 2.2417 7.5483 4.5565 10.857 1.4786 2.1134 2.6324 4.4802 2.4993 7.1439-0.2173 4.3506 1.8558 7.569 4.761 10.455 0.8264 0.8209 1.5429 1.7734 2.4484 2.4908 9.0219 7.1482 12.405 16.239 12.942 27.919 0.5919 12.865 3.8784 25.643 7.5326 38.147 1.6831 5.7593 2.7836 11.577 6.2175 16.839 3.5342 5.415 2.0548 11.727 0.8163 17.695-0.3589 1.7296-1.8583 2.5723-3.4144 3.2323-5.9005 2.504-11.892 4.0599-18.333 2.2117-6.0438-1.7343-12.153-3.2477-18.164-5.0876-5.1392-1.573-10.268-2.9774-15.676-3.2686-10.202-0.5492-17.431-7.296-25.042-12.814-2.8071-2.0353-5.0251-4.452-8.671-5.1266-2.73-0.505-4.9825-1.4933-4.734-5.4762 0.1912-3.0641-2.086-5.9337-3.8435-8.5785-2.4636-3.7072-4.3099-7.6869-6.0397-11.77-1.8491-4.3647-1.7179-8.0945 2.3107-11.173 3.965-3.03 5.1982-6.6631 2.8988-11.446-1.9685-4.0942-0.2782-7.6025 2.4497-10.869 3.1259-3.7429 6.1806-7.5648 8.9794-11.554 1.4273-2.0342 2.7728-4.5054-0.6365-6.3866-0.704-0.3884-1.5101-1.5905-1.4043-2.2863 0.6961-4.5774-3.5461-6.6903-4.8486-10.204-1.5538-4.1915-5.0344-6.5703-8.071-9.4314-2.0876-1.967-3.3795-4.5249-3.4868-7.4287-0.1934-5.226-1.7642-10.022-4.0099-14.675-1.12-2.3206-1.9924-4.7969-1.6863-7.4137 1.6641-14.229-4.4406-26.759-8.2256-39.887-4.3814-15.197-12.786-28.307-19.541-42.306-7.4339-15.407-16.637-29.543-26.229-43.569-3.3811-4.9435-7.7415-8.6466-12.232-12.311-3.3622-2.7435-5.8161-5.7968-6.7432-10.222-0.8057-3.8461-2.5319-7.4564-4.409-10.963-2.5258-4.7185-5.4653-9.4352-6.3062-14.701-1.2303-7.704-5.1088-13.702-9.7593-19.633-2.8126-3.5872-5.6661-6.5616-10.04-8.1952-5.5399-2.0691-8.3665-6.1165-8.4809-12.314-0.137-7.422-3.5672-14.47-2.8839-22.052 0.0817-0.9071-0.2861-1.8866-1.3637-2.1676-0.9955-0.2596-1.8384 0.1642-2.3844 0.9854-1.4152 2.1288-2.945 4.2054-4.1268 6.4612-8.5543 16.327-18.247 31.918-30.039 46.118-6.0756 7.3164-7.3286 16.268-9.6966 25.024-5.1204 18.933-7.3833 38.334-9.0898 57.682-1.9527 22.138-6.5323 44.192-4.5608 66.55 0.84 9.5251 0.0175 19.232 1.5992 28.494 2.2878 13.397 6.0686 26.532 17.45 36.097 4.5528 3.826 9.2953 7.6766 13.216 12.339 3.628 4.3137 7.0137 8.5686 8.0765 14.365 0.7261 3.9598 3.3596 7.1487 5.7838 10.234 4.9039 6.241 9.0219 12.974 13.085 19.756 1.927 3.217 4.4654 5.9292 6.9635 8.7108 4.4613 4.9675 3.7907 11.044-1.3396 15.165-3.3003 2.6509-6.9767 4.5785-10.896 6.1667-10.123 4.1024-20.217 8.2795-30.27 12.551-3.2622 1.3861-6.4698 1.1851-9.515-0.0797-9.8399-4.087-19.868-7.6746-28.27-14.76-5.4857-4.6263-11.149-9.1252-17.233-13.082-4.7051-3.0598-9.1896-6.9586-5.9096-13.786-3.2734-11.006 3.4854-19.678 6.8889-29.091 2.0535-5.6792 2.3513-5.7867-3.7616-7.0847-4.4341-0.9413-7.6496-4.1283-8.3455-7.5754-1.152-5.7065-4.6159-7.2219-9.2311-8.7489-13.05-4.3176-16.937-11.412-14.123-25.157 0.606-2.9604 0.6579-5.7778 0.3323-8.8446-0.7606-7.1643-0.4144-14.384 0.2803-21.602 0.7563-7.8575-2.3009-11.608-8.3904-11.789-3.2307-0.0959-4.9392 1.8195-6.6124 4.676-2.9794-4.5277-5.1469-8.2349-5.5394-13.539-0.4515-6.1002-3.2167-12.046-5.1188-18.014-0.968-3.0374-2.9412-4.4597-5.5882-1.7401-2.8841 2.963-4.4238 1.1348-5.8484-1.2751-0.8193-1.3861-1.789-2.9463-1.8585-4.4662-0.2686-5.8726-2.6895-10.908-5.1752-16.067-1.8324-3.8029-3.4034-7.4677-7.0935-10.004-3.7399-2.5706-4.2285-7.0702-5.2637-11.075-1.9094-7.3859-3.6296-14.778-7.7555-21.4-1.7185-2.7581-3.8104-4.4626-6.8121-5.5475-9.6156-3.4751-11.668-6.9011-10.41-17.289 0.529-4.3699 1.3486-8.6321 1.2045-13.139-0.219-6.8499-1.366-13.39-3.6919-19.783-0.8782-2.4136-1.6644-4.8414-1.4075-7.4827 1.1041-11.348-0.4513-22.764 0.8359-34.103 0.2685-2.3649 0.1894-4.618-0.4939-6.8965-1.0306-3.4363-0.9947-6.8842 0.104-10.322 2.1804-6.8234 1.7704-13.742 0.8853-20.72-1.0307-8.1268 1.2966-16.152 0.6948-24.35-1.1228-15.295 2.2787-30.477 1.1031-45.939-0.6254-8.2257 0.2431-16.929 1.8901-25.464 2.3631-12.245 3.9427-24.742 4.111-37.317 0.0529-3.9522 0.266-7.9116 0.6213-11.848 0.463-5.13 0.4336-10.103-0.9265-15.206-1.9334-7.2535-1.1549-14.872-0.9984-22.24 0.2203-10.37 0.9224-20.791 2.4585-31.122 0.728-4.8964 2.1008-9.5642 3.702-14.154 3.0632-8.7799 5.0783-17.86 7.7644-26.744 2.4645-8.151 3.4479-16.877 4.0756-25.423 0.7356-10.016 2.6364-19.789 4.6118-29.557 1.89-9.3463 2.0177-18.958 4.5704-28.192 0.9013-3.2604-0.1101-6.419-0.9941-9.5985-1.5436-5.5519-1.472-11.11 1.3461-16.298 6.7774-12.478 11.324-25.997 18.363-38.382 7.6934-13.536 14.746-27.405 23.452-40.388 4.7867-7.1384 9.5312-14.279 14.516-21.291 5.027-7.0708 10.513-13.552 16.818-19.515 4.9559-4.6866 10.167-8.7852 16.121-12.084 5.4982-3.0468 10.726-6.5502 15.553-10.619 3.9371-3.3185 8.3696-5.7618 13.06-7.9365 10.503-4.8697 20.733-10.099 29.737-17.726 13.165-11.152 27.561-20.321 44.247-25.795 19.252-6.3164 37.54-15.136 56.13-23.152 2.7769-1.1973 5.5767-2.3495 8.407-3.4131 7.8112-2.9353 15.457-5.9631 22.753-10.314 9.6434-5.7505 20.922-7.5756 31.918-9.6275 5.0204-0.9368 10.062-1.7929 15.123-2.4728 5.3357-0.7168 10.716-0.9617 15.901 0.9064 8.6474 3.1158 17.187 3.395 26.459 2.1719 9.4256-1.2433 19.044-2.4403 28.911-1.1313 10.033 1.3311 20.322 0.6863 30.427-2.1262 10.953-3.0484 22.229-4.9221 33.331-7.4536 7.6751-1.75 8.3315-2.654 8.3486-10.392 0.0112-5.104-0.4034-10.093-1.454-15.194-1.298-6.302-0.1925-12.916 0.8032-19.341 0.1036-0.6684 0.329-1.4831 0.7932-1.9054 7.0427-6.408 7.1795-14.817 6.9566-23.385-0.1334-5.1298 3.1564-8.6937 6.3097-12.071 2.4475-2.6212 5.1751-1.162 7.4012 0.8109 4.1013 3.6349 6.9325 8.1915 8.6752 13.33 1.2748 3.7589 3.1696 6.658 7.1682 7.8402 3.4429 1.018 4.6276 4.4305 6.8747 6.7162 4.639 4.7187 6.2634 4.7077 10.68-0.2025 2.3906-2.6578 4.15-5.5684 4.2595-9.3117 0.0859-2.94-0.3118-5.3407-3.1401-7.1818-3.1215-2.0318-5.6247-4.8982-7.5836-8.1141-3.8948-6.3938-8.5226-12.192-13.538-17.748-4.8734-5.3989-4.7404-7.8031 0.3307-13.081 4.7161-4.9086 9.5317-9.6759 8.9897-17.35-1.3136-1.1085-2.5809-0.0357-3.8678 0.1668-3.0752 0.4839-3.5945-1.3293-3.278-3.75 0.086-0.6581 0.5079-1.3013 0.875-1.8894 5.0368-8.0702 4.0799-16.453 1.2762-24.908-5.1887-15.648-8.122-31.902-6.511-48.137 1.1948-12.04-0.2168-23.538-1.266-35.283-0.4518-5.0568-1.3495-11.265 1.4791-14.969 2.8682-3.7559 3.5938-7.7804 5.1844-11.682 1.1576-2.8399 1.1536-5.9418-0.8262-8.6667l0.1499 0.1421zm-432.91 908.67c0 7.1207-0.0344 12.481 0.0168 17.84 0.0206 2.1577 0.334 4.463 2.8466 5.0153 2.8714 0.6312 4.1878-1.5433 5.0683-3.7806 0.7638-1.9412 1.175-4.0178 1.831-6.0052 3.4599-10.483 0.4491-20.781-1.1221-31.044-1.2135-7.9268 0.7845-14.609 6.9603-19.295 10.358-7.8594 17.015-18.932 25.686-28.235 1.5087-1.6189 2.6519-3.719 3.5683-5.9232 3.0491-7.3342 6.6325-14.356 13.56-18.983 1.473-0.9839 2.6788-1.9955 2.9668-4.2778 0.8047-6.3771 3.8069-12.217 6.3917-17.934 3.42-7.5647 7.6182-14.88 12.4-21.787 3.3271-4.8064 5.6579-10.131 7.3239-15.764 4.9376-16.696 4.2186-32.146-6.9161-46.837-13.906-18.347-24.886-38.709-37.662-57.859-2.6746-4.009-3.5396-8.3896-3.1792-13.759 0.4011-5.9758 2.2789-14.301-7.1595-16.905-1.0226-0.2822-1.8596-1.3715-2.6948-2.1776-7.4751-7.2144-12.137-16.059-14.729-26.014-1.4281-5.4841-3.4509-7.9823-7.4391-7.2549-6.529 1.1909-12.417 2.3452-12.24 9.5031 0.1337 5.384 0.2853 10.738 1.8671 15.89 0.7871 2.5638 0.9067 4.8755 0.222 7.4841-0.7015 2.6725-0.684 5.5257-1.1174 8.2784-1.4821 9.4146-0.6514 18.974-2.2543 28.436-1.7807 10.512-4.4327 20.94-4.0568 31.792 0.37 10.682 0.9849 21.324 2.2938 31.934 1.1225 9.099 1.5885 18.888-1.7037 26.938-3.7573 9.1875 1.1204 17.964-1.9268 26.535 2.4202 12.681 1.2181 25.475 1.0148 38.217-0.1927 12.074-1.0453 24.156 1.2966 36.112 1.288 6.5754 2.6107 13.173 4.4795 19.597 1.739 5.9778-0.1466 12.436 1.8047 17.936 2.8448 8.0174 2.1759 16.028 2.6038 22.326zm1206.5-447.25c0.068-3.973-2.7278-6.4644-5.3503-8.5073-6.8718-5.3535-13.63-10.602-22.134-13.846-23.691-9.0372-46.434-20.333-69.428-31.014-6.835-3.1751-8.2332-2.8854-11.522 3.7614-5.2708 10.652-11.956 20.479-17.442 30.996-3.3676 6.4557-3.5093 7.0558 2.9279 10.94 7.964 4.8054 16.445 8.7751 24.28 13.769 20.474 13.049 42.236 23.485 64.76 32.328 15.353 6.0273 31.642 9.0728 47.426 13.754 4.6078 1.3666 7.179-0.6338 7.3896-5.4933 0.54-12.453-5.5253-21.854-14.841-29.068-3.6403-2.8191-5.6476-5.9272-6.8345-10.009-0.7606-2.6156 0.7682-5.0224 0.7671-7.6098zm-416.56-195.07c-2.1824-4.1995-5.2484-6.7099-8.159-9.371-15.278-13.968-31.741-26.615-46.301-41.376-5.6097-5.6875-11.924-10.277-18.927-14.091-8.7798-4.7819-17.424-9.8181-26.06-14.857-7.3895-4.3115-15.206-7.9771-20.746-14.98-2.2523-2.847-5.5732-4.5172-9.7442-4.4498-1.6033 10.599 3.4214 20.187 3.0964 30.444-0.2207 6.9624 0.8832 6.9887 8.0203 8.6512 0.9028 0.2103 1.8045 0.4921 2.651 0.8665 6.3559 2.812 12.99 4.3572 19.89 5.3154 7.481 1.0388 14.324 3.9339 19.767 9.5367 6.6222 6.8173 13.125 13.765 20.751 19.524 6.537 4.936 12.28 10.592 16.645 17.637 2.072 3.344 4.7292 6.3338 7.2085 9.4139 1.4933 1.8555 3.3965 3.737 5.9034 2.8566 6.1069-2.1447 12.311-1.7443 18.534-1.2922 3.2223 0.2342 4.8024-2.3262 7.4709-3.8266zm-476.67 31.785c0 0.0275-1e-4 0.055-1e-4 0.0825-6.2786 0-12.557-0.0181-18.836 0.0215-0.8489 0.0053-1.9419-0.1137-2.1918 1.124-0.2558 1.267 0.1159 2.3118 1.4047 2.7778 1.3063 0.4723 2.6438 0.866 3.9837 1.2362 8.7582 2.4199 17.009 6.1053 25.384 9.5833 13.679 5.6802 26.757 12.883 41.492 16.075 4.6289 1.0026 6.3315 0.0971 7.4017-3.9686 0.9876-3.7523 2.7886-7.1594 6.7603-8.2339 9.8591-2.6674 18.682-8.3177 28.802-10.046 3.2613-0.5569 3.8126-2.1831 3.3111-4.6849-0.8652-4.3166-2.0162-8.5753-3.015-12.866-0.8185-3.5158-2.9805-3.9446-6.2602-3.4099-11.865 1.9349-23.83 3.2915-35.653 5.4383-10.368 1.8827-21.32 0.7435-31.083 6.0779-1.8708 1.0222-4.5462 0.7141-6.8557 0.7617-4.8801 0.1007-9.7638 0.0307-14.646 0.0307zm861.57 126.08c2.1102 0.4594 2.6021-1.8456 2.1921-4.8-0.2861-2.0624-1.2968-4.1585-1.0668-6.1328 0.6409-5.5028-2.8759-7.3039-7.0173-8.7111-1.7523-0.5953-3.5459-1.1705-5.3674-1.4442-11.738-1.763-22.915-5.5398-34.106-9.2985-4.8351-1.6241-9.7056-3.152-14.603-4.5769-1.5771-0.4589-3.4916-0.4373-4.297 1.3064-0.8784 1.9012-1.2333 4.1186 0.501 5.8182 0.9653 0.9462 2.2485 1.6309 3.4885 2.2247 14.207 6.8044 28.388 13.668 42.68 20.29 5.0223 2.3272 10.202 4.4472 17.595 5.3245zm-19.464-35.224c3.5182 0.1694 4.5649-1.2026 2.9279-4.1234-1.2367-2.2067-2.6492-4.5284-4.5565-6.106-5.9281-4.9029-9.1555-11.568-12.644-18.107-0.6532-1.2242-1.2567-2.5058-2.101-3.5916-2.9082-3.7405-5.5736-4.0119-8.376-0.2731-3.7511 5.0048-7.1115 10.316-10.425 15.63-1.644 2.6366-1.7109 4.7722 2.1241 6.176 10.25 3.752 20.67 6.9296 31.119 10.036 0.6638 0.1972 1.3683 0.2575 1.9314 0.3593zm-799.01-102.93c0.0868 0.6846 0.1735 1.3691 0.2602 2.0537 4.2189 0.4734 8.4456 0.188 12.68-0.5757 3.8538-0.6953 7.6075-1.9449 11.635-1.5964 5.2634 0.4554 9.8661-2.1926 14.751-3.4948 1.2601-0.3359 2.5809-1.041 1.6677-2.9821-0.61-1.2967-0.9344-2.6033-2.7979-2.3481-0.9116 0.1248-1.8912-0.1108-2.7687 0.1057-11.816 2.9161-23.62 5.8832-35.426 8.8377zm42.649-52.685c-0.3746 1.1187-0.6819 1.7118-0.738 2.3279-0.0328 0.3603 0.3354 0.7571 0.5232 1.1375 0.2276-0.3542 0.6317-0.7027 0.6436-1.0639 0.0203-0.6205-0.2043-1.2489-0.4288-2.4015z"/>
 <path d="m568.65 268.04c0.1137 0.8657 0.2296 1.7311 0.3185 2.5993 0.0012 0.0123-0.4727 0.128-0.4971 0.0798-0.4628-0.9107 0.0641-1.7082 0.3287-2.5369l-0.1501-0.1422z"/>
</svg>
