<?xml version="1.0" encoding="UTF-8"?>
<svg viewBox="0 0 21.022848 32.734417" xmlns="http://www.w3.org/2000/svg">
 <defs>
  <radialGradient id="a" cx="12.5" cy="2.3351" r="9.9625" gradientTransform="matrix(.99168 .004163 -.004198 .99999 .11387 -.052012)" gradientUnits="userSpaceOnUse">
   <stop stop-color="#fff" offset="0"/>
   <stop stop-color="#009200" offset="1"/>
  </radialGradient>
 </defs>
 <g transform="matrix(-.84261 .026204 .026204 .84261 -5.8372 -854.2)" opacity=".65">
  <path d="m12.5 1013.9c-6.6169 0-11.98 5.3547-11.98 11.962 0 4.7357 2.7733 8.8206 6.771 10.759l5.2085 14.238c1.9367-4.729 3.6869-9.5241 5.4038-14.335 3.8908-1.9764 6.5757-6.0043 6.5757-10.662 0-6.6075-5.3626-11.962-11.98-11.962z" fill="#00a000" stroke="#000"/>
  <path transform="matrix(.85378 .70013 -.70013 .85378 9.8792 1007.3)" d="m21.964 11.5c0 5.227-4.2373 9.4643-9.4643 9.4643s-9.4643-4.2373-9.4643-9.4643 4.2373-9.4643 9.4643-9.4643 9.4643 4.2373 9.4643 9.4643z" fill="url(#a)"/>
 </g>
</svg>
