<?xml version="1.0" encoding="UTF-8"?>
<svg viewBox="0 0 640 480" xmlns="http://www.w3.org/2000/svg">
 <path d="m401.57 0.0562c-2.3199-0.08706-4.6397 2.2321-6.9596 2.6614-2.6513 0.49057-9.7102 13.258-10.594 15.711-0.88376 2.4529-7.1142 11.762-7.1142 11.762s-4.8165 6.9293-8.3515 13.307c-3.535 6.3775-8.8928 8.3275-8.8928 8.3275s-3.5129 1.9378-8.8154 2.9189c-5.3025 0.98117-15.046 4.8689-19.023 4.3784-3.9769-0.49052-17.2 6.4143-22.503 9.3578-5.3025 2.9435-11.909 9.3332-15.002 12.277-3.0931 2.9435-7.5782 3.9491-7.5782 3.9491s-10.141 4.4029-11.909 4.8935c-1.7674 0.49054-5.2914 5.3596-4.4077 7.8124 0.88379 2.4529-3.5571 5.4086-3.5571 5.4086s-7.0369 4.3784-10.13 7.8124c-0.75412 0.83721-1.0926 1.9636-1.1599 3.1765l-242.73-65.418s-2.6844-14.717-5.3357-13.736c-2.6512 0.98117-7.5009 4.8445-7.5009 7.2973 0 2.4529 1.3146 13.307 1.3146 13.307s7.0811 3.3972 7.9648 0.94436c0.88065-2.4442 245.64 63.15 247.37 63.616 0.58932 1.7923 1.2301 3.402 1.3919 4.1208l-2.2425 7.2973s6.6392 0.55191 7.9648 3.0048 8.4288 10.731 8.4288 10.731l7.0369-4.3784 6.6502-0.5151s9.6881-5.8623 10.13-9.787c0.44192-3.9246 5.7996-13.221 5.7996-13.221l9.666-0.5151 0.464 12.277s-3.5129 3.434-5.7223 3.434-3.9769 2.4284-6.1863 6.353-1.3146 5.8869-1.3146 13.736c0 7.8492-0.92795 6.9049-4.0211 9.3577-3.0931 2.4529 0.46399 8.3275 0.46399 8.3275s-3.524 12.73-4.4077 16.655c-0.88373 3.9246 4.4409 19.169 6.6503 23.094 2.2094 3.9246 10.13 26.957 10.13 26.957l-2.6291 12.792s-7.5119 0.98119-9.2794 0c-1.7675-0.98114-6.6502 7.8124-6.6502 7.8124l-122.87-82.417-2.6292 4.8935 121.95 88.341 67.198 49.536s-12.859 10.78-13.3 8.3275c-0.44183-2.4528-4.8496-9.836-7.5008-10.817-2.6512-0.98114-8.8265 13.246-10.594 13.736-1.7675 0.49054-11.058 6.8681-11.058 6.8681l-132.54-50.051 1.3146 11.332 185.12 73.059 122.02 54.945s38.001 26.552 46.397 33.911c8.3956 7.3586 29.153-3.0048 29.153-3.0048s47.27 17.231 53.898 16.741c6.6281-0.49054 15.466-12.792 15.466-12.792l-8.8154-2.4897s-20.37-3.851-25.673-1.8887c-5.3025 1.9623-37.582-15.711-37.582-15.711l-77.328-36.315-85.68-69.196 7.0369-8.3275 24.358-33.396 28.225-31.336c3.0931-3.434 3.1483-2.968 5.7996-7.3832s-1.3367-7.3832-1.7786-10.817c-0.44183-3.434-2.2094-1.9255-3.0931-4.3784-0.88376-2.4528-2.2535-5.8991-4.0211-8.8426-1.7676-2.9434-3.9659-3.4095-7.5008-6.353-3.5351-2.9435-8.8596-2.9435-12.836-3.434-3.9769-0.49058-6.1862-2.4897-6.1862-2.4897s2.2535-2.4284 4.0211-6.353c1.7676-3.9245 6.1421-4.8935 8.3515-4.8935s4.9159-9.37 5.7996-11.332c0.88376-1.9623 1.3367-8.2785 1.7785-10.731 0.44186-2.4528-2.2757-5.4086-4.485-8.8426-2.2094-3.434-4.3635-2.4529-6.5729-3.434-2.2094-0.98116-8.4398-2.9802-13.3-2.4897-4.8607 0.49054-10.605-2.8944-15.466-2.4038-4.8607 0.49054-10.163-2.5265-12.373-1.5453-2.2094 0.98117-5.3135-6.8068-1.7785-10.731 3.535-3.9246 1.8337-3.4953 4.485-6.4388s8.3625-11.283 10.13-13.736c1.7676-2.4529 1.3478 0.049225 3.5571-2.4038 2.2094-2.4529 9.6881-2.4651 13.223-1.9746 3.535 0.49063 7.1142-0.98114 10.207 0 3.0931 0.98117 6.6171 0.47832 10.594 1.4595 3.9769 0.98117 8.8376 3.434 15.466 6.8681 6.6281 3.434 11.92 2.4774 16.78 3.9491 4.8607 1.4717 7.534 1.9133 15.93 2.4038 8.3957 0.49054 10.152 1.9746 13.687 1.9746s12.373 3.434 12.373 3.434l9.666-0.4292s4.2724-0.31799 8.7382-0.60097c-2.242 12.308-38.742 212.48-38.742 212.48s-12.373-1.9623-12.373 0 0.86163 8.8549 2.6292 10.817c1.7676 1.9623 6.6503 3.434 6.6503 3.434l-1.7786 22.064 3.5571 0.9443 1.7786-23.008 6.1863-3.9492s1.2814-7.3096-0.92795-9.2719c-2.127-1.8892 35.131-198.78 37.968-213.77 1.1438-0.057663 3.0654-0.17169 3.5571-0.17169 2.6513 0 4.0101-1.4717 5.3357-3.434s4.8496-5.3595 4.4077-7.8124 3.0931-3.434 3.0931-3.434 4.8827-1.018 3.5571-5.9237-0.49713-0.93211 0.38666-5.8379c0.88379-4.9057-1.7344-3.9491-3.9437-7.3832-2.2094-3.434-4.4299-1.9623-7.9648-3.434-3.5351-1.4717-6.2083-0.53967-9.7434-1.0302-3.535-0.49052-3.535 1.5208-9.2794 1.0302-5.7443-0.49052-7.0369 3.9491-7.0369 3.9491s-14.107-1.484-19.409-1.9746c-5.3025-0.49061-11.058-4.9057-14.151-6.8681-3.0931-1.9623-9.3126-0.98114-11.522-3.434s-6.5951-4.9057-7.0369-6.8681c-0.44183-1.9623-23.906-12.767-25.673-15.711-1.7676-2.9435-4.3856-2.4774-7.0369-3.9491s-14.571-3.4586-16.78-3.9491c-2.2094-0.49052-3.1153 1.0302-3.5571-2.4038-0.44183-3.434 0.9169-4.4642 2.2425-7.8983 1.3256-3.434 3.071-4.8935 5.7223-8.3275s1.3478-6.3162 3.5571-10.731c2.2094-4.4152 0.40875-5.4699 0.85062-11.847 0.44183-6.3775-0.89481-4.8935-1.7786-11.762-0.88376-6.8681-3.9769-4.918-6.1863-8.8426s-5.2915-4.4152-10.594-6.8681-7.4787-2.8821-10.13-3.8633c-0.33142-0.12253-0.67383-0.24505-1.0052-0.25742v-8.2e-5zm-33.483 266.65l17.244 1.4595 7.9648 6.8681-17.244 12.277-7.9648-20.604zm65.42 113.75l19.873 15.711-22.58-9.787 2.7065-5.9237zm96.738 58.894c1.7675 0 18.559 9.3578 18.559 9.3578l-3.5571 4.3784-15.002-13.736z"/>
</svg>
