<svg viewBox="0 0 793.7 1122.5" xmlns="http://www.w3.org/2000/svg"><g fill="#231f20"><path d="M525.56 171.69V96.173h-7.013c-20.877 0-37.758 16.882-37.758 37.758 0 20.877 16.88 37.759 37.758 37.759h7.013zM468.47 154.48l-32.947-65.975c-7.34-13.538-21.53-22.59-38.084-22.59h-76.577c-7.176 0-12.885 5.709-12.885 12.885s5.709 12.885 12.885 12.885h76.577c6.28 0 13.13 4.159 15.821 10.112l21.04 41.999 34.17 10.683z"/></g><path d="M620.65 225.02c10.03 2.855 17.37 12.151 17.37 22.998h-55.781c-73.396 0-133.01 59.695-133.01 133.09h-181.53c0-58.962-38.411-109.03-91.582-126.4l-99.982-33.029 16.555-25.281c5.872-8.889 16.065-14.679 27.564-14.679 2.528 0 4.893.163 7.177.652l222.88 69.074c2.691.816 5.627 1.305 8.645 1.305 10.03 0 18.756-5.056 24.057-12.885l50.643-73.233 187 58.391z"/><path d="M471.41 404.27c0-50.236 40.612-90.686 90.603-90.686s90.604 40.45 90.604 90.686c0 49.991-40.613 90.604-90.604 90.604s-90.603-40.613-90.603-90.604m90.603 33.926c18.757 0 33.926-15.332 33.926-33.926 0-18.839-15.168-33.926-33.926-33.926-18.675 0-33.762 15.087-33.762 33.926 0 18.593 15.087 33.926 33.762 33.926M44.404 394.49c0-54.884 44.608-99.574 99.738-99.574 55.129 0 99.656 44.691 99.656 99.574 0 55.129-44.527 99.819-99.656 99.819s-99.738-44.69-99.738-99.819m99.901 37.351c20.551 0 37.27-16.637 37.27-37.27s-16.719-37.269-37.27-37.269c-20.714 0-37.269 16.636-37.269 37.269s16.555 37.27 37.269 37.27"/></svg>