<svg viewBox="0 0 632.38 529.5" xmlns="http://www.w3.org/2000/svg"><path d="M4.555 416.802S127.279 5.495 323.529 3.556c163.522-1.616 304.452 387.87 304.452 387.87L399.63 525.531 4.555 416.795z" fill="#fff" stroke="#000" stroke-width="7.2361"/><path d="M4.555 416.802l33.957-92.405c-25.173 12.106 204.76 121.364 336.297 76.891 90.444 14.642 212.727-74.257 215.99-97.144l37.185 87.289-228.35 134.106L4.558 416.802z"/><path d="M432.136 240.314c-77.217 36.987 23.07 221.49 22.526 249.638l96.037-54.327c-2.394-25.493-66.485-216.728-118.563-195.31z" stroke="#000" stroke-width="5.933602"/><path d="M241.03 129.746c-6.9-.435-28.299 15.47-39.813 39.368 1.393-1.09 2.77-1.945 4.136-2.553 3.994-1.78 7.98-1.304 11.23.706 3.249 2.01 5.88 5.367 8.16 9.366 5.863 10.281 9.448 25.135 11.279 34.496 1.023-31-1.55-56.343 5.008-81.384zm-5.008 81.385c-.422 2.174-.842 4.347-1.257 6.518l-1.71-1.638c.102.618.21 1.27.267 1.636l-49.897-12.788c4.591-10.619 8.884-18.542 12.756-24.197l-1.283-1.23c1.924-3.481 4.055-6.935 6.318-10.317-6.75 5.278-13.894 16.455-22.194 36.244a1.851 1.851 0 0 0 1.236 2.506l54.975 14.089a1.851 1.851 0 0 0 2.297-2.056s-.492-3.564-1.51-8.767zm-39.84-30.47l36.874 35.35c-1.053-6.402-4.536-25.288-11.525-37.545-2.104-3.69-4.493-6.557-6.909-8.05-2.415-1.494-4.75-1.814-7.774-.467-2.988 1.331-6.593 4.766-10.665 10.713z"/><path d="M430.11 247.405c-72.162 35.963 21.559 215.361 21.052 242.72l89.756-52.822c-2.237-24.787-62.135-210.73-110.806-189.904z" stroke="#fff" stroke-width="5.6586302"/><path d="M345.013 189.3l104.395 306.528 14.024-273.988-118.419-32.536z" fill="#fff" stroke="#000" stroke-width="7.1058502"/><path d="M477.506 144.797l91.935 280.84 26.488-248.299-118.418-32.536z" fill="#fff" stroke="#000" stroke-linejoin="round" stroke-width="7.1058502"/><path d="M343.06 187.129l124.634 34.812 125.098-44.602-114.497-35.346-135.236 45.136z" stroke="#000" stroke-linejoin="round" stroke-width="7.1058502"/><path d="M315.78 5.285c-73.266.338 59.254 365.156 80.71 516.745" fill="none" stroke="#000" stroke-width="7.2361"/><path d="M249.914 26.12c40.261-8.919 35.306 9.487 47.376 11.844 15.273-20.375 41.128-25.111 68.696-23.688-5.08-12.256-105.38-10.587-116.07 11.844z" fill-rule="evenodd" stroke="#000"/></svg>