<svg xmlns="http://www.w3.org/2000/svg" width="123.547" height="123.539" viewBox="-0.258 -0.548 123.547 123.539"><path d="M108.656 122.605c8.125 0 14.742-6.617 14.742-14.773V13.816c0-8.156-6.617-14.75-14.742-14.75H14.633c-8.156 0-14.75 6.594-14.75 14.75v94.016c0 8.156 6.594 14.773 14.75 14.773h94.023z"/><path d="M14.633 1.566c-6.75 0-12.25 5.5-12.25 12.25v94.016c0 6.766 5.5 12.266 12.25 12.266h94.023c6.758 0 12.258-5.5 12.258-12.266V13.816c0-6.75-5.5-12.25-12.258-12.25H14.633z" fill="#fff"/><path d="M80.383 24.582c0 4.586-3.711 8.297-8.273 8.297a8.282 8.282 0 0 1-6.781-3.539h2.609a4.392 4.392 0 0 0 3.945-2.492l1.125-2.414a.465.465 0 0 1 .414-.266h6.961v.414z"/><path d="M81.969 22.043c-1.125-4.398-5.125-7.641-9.859-7.641-5.633 0-10.18 4.562-10.18 10.18 0 .93.125 1.828.344 2.656h5.664c.906 0 1.703-.531 2.07-1.289l1.094-2.422a2.548 2.548 0 0 1 2.32-1.484h8.547zM52.656 29.418a2.347 2.347 0 0 0 .344-3.32l-4.469-5.5a2.339 2.339 0 0 0-3.32-.336L26.102 35.785a2.385 2.385 0 0 0-.336 3.344l4.461 5.492c.836 1.008 2.32 1.148 3.352.344l19.077-15.547zM33.797 51.387a10.39 10.39 0 0 0-2.711 3.125 10.746 10.746 0 0 0-1.297 3.734l-5.445 23.461L9.328 96.16a5.164 5.164 0 0 0-1.047 1.344 5.741 5.741 0 0 0 2.148 7.859c2.219 1.273 4.953.883 6.742-.75l16.695-16.141c.242-.297.461-.609.656-.953.25-.438.445-.875.562-1.344l3.398-14.867 11.164 11.133-.023 18.773a5.8 5.8 0 0 0 2.906 5.008 5.783 5.783 0 0 0 7.859-2.148c.539-1 .781-2.055.734-3.102l.023-20.875a5.744 5.744 0 0 0-1.508-4.078l-12.035-11.89 13.844-11.352 3.195 8.867a4.386 4.386 0 0 0 1.195 1.531l13.227 10.039c1.781 1.094 4.18.805 5.664-.781a4.55 4.55 0 0 0-.219-6.422c-.047-.047-.125-.102-.172-.148l-11.594-8.859-5.367-15.75a10.34 10.34 0 0 0-4.469-5.078 10.453 10.453 0 0 0-11.008.414L33.797 51.387zM85.117 22.137a1.92 1.92 0 0 1 1.297-3.321l28.664.023c2.898.031 4.688 8.234 2.734 14.68-1.836 5.977-7.281 13.695-9.844 11.078l-22.851-22.46z"/></svg>