<svg viewBox="0 0 458.15839 661.55804" xmlns="http://www.w3.org/2000/svg"><path d="M90.514 653.926c19.59-4.1 37.905-7.504 40.7-7.565s7.556-1.146 10.58-2.41c6.34-2.649 10.87-1.09 17.515 6.021 4.773 5.11 10.668 5.206 28.982.474 10.027-2.59 15.488-3.239 20.282-2.407 10.906 1.891 22.901 2.421 26.306 1.162 1.858-.688 4.024-3.685 5.134-7.104 1.056-3.253 5.027-12.134 8.824-19.736 11.79-23.598 18.882-32.98 13.587-17.972-1.286 3.647-2.337 10.898-2.333 16.115.008 13.617 3.007 17.671 17.225 23.281 6.28 2.478 15.489 7.252 20.465 10.608 10.584 7.139 11.524 7.105 30.442-1.084 23.793-10.3 31.567-12.912 46.457-15.612 8.09-1.467 15.93-3.303 17.422-4.081 3.917-2.044 3.395-7.193-2.709-26.747-3.983-12.758-6.848-19.027-10.813-23.66-5.165-6.033-9.342-14.11-7.994-15.458.351-.351 1.34 1.313 2.197 3.699s5.832 9.216 11.055 15.178c9.056 10.338 15.261 21.213 22.006 38.568 7.174 18.459 9.47 21.79 15.359 22.287 5.297.447 31.039-7.516 35.164-10.877 2.807-2.287 2.412-7.966-1.876-26.96-5.438-24.09-9.722-37.11-13.665-41.531-4.766-5.344-41.612-31.816-44.285-31.816-2.32 0-12.738 7.863-22.07 16.657-6.721 6.333-8.874 4.617-3.72-2.967 4.28-6.3 19.414-39.32 19.414-42.36 0-2.223-18.7-18.565-24.292-21.228-2.654-1.264-5.52-.758-13.255 2.338-9.674 3.873-10.04 3.902-18.68 1.498-4.848-1.35-8.813-3.282-8.813-4.294s2.04-10.131 4.535-20.264 7.77-33.057 11.725-50.943 9.632-41.928 12.618-53.426 8.529-33.022 12.318-47.831 7.22-27.46 7.624-28.115c.773-1.25 13.147-42.451 16.144-53.752 1.04-3.924 3.256-7.575 5.48-9.032 5.432-3.56 7.56-11.627 6.39-24.222-.88-9.465-.39-12.623 4.223-27.245 9.27-29.384 9.774-32.21 6.411-35.926-1.995-2.204-4.4-3.072-7.637-2.755-5.207.51-6.405 3.173-15.54 34.531-5.707 13.616-5.348 18.02-17.443 18.093-3.169.365-5.07 2.071-7.449 6.684-4.244 8.23-9.24 8.957-15.247 2.218-4.035-4.53-4.957-4.846-12.322-4.23-13.344 2.405-19.71 8.95-33.042-3.931-2.586-1.913-8.14-5.593-9.977-9.192s-7.673-11.074-12.97-16.61c-16.39-17.128-13.713-19.35.107-19.35 17.289-1.753 13.298-8.778 15.79-16.956.965-3.169 8.407-2.987 8.003-4.997-.795-10.81 1.407-17.48 6.49-21.02 2.9-8.511.24-10.52 7.325-12.856 6.438-3.685-7.634-18.171-18.64-21.47-10.827-3.245-12.42-8.593-12.42-9.42s-1.757-3.885-3.905-6.796 1.056-12.815.19-16.033-3.117-6.84-5-8.047c-4.283-2.746-15.837-7.858-45.745-16.436L210.111.003l-11.019 2.65c-24.68 5.936-22.049 4.114-26.58 18.406-4.492 14.167-6.815 38.83-4.13 43.847 1.477 2.761 1.135 2.96-4.232 2.447-3.773-.36-8.056.574-12.097 2.636-5.622 2.867-6.758 4.495-11.176 16.015-10.59 27.607-47.281 137-48.71 145.23-.767 4.42.154 7.418 4.999 16.26 5.541 10.114 6.536 11.079 14.86 14.41 4.906 1.965 12.317 3.974 16.468 4.466l7.547.893-3.597 4.827c-1.979 2.655-5.253 9.704-7.278 15.667-3.134 9.232-3.705 14.057-3.85 32.52 8.404 21.712 6.406 42.744 5.547 66.896l-1.327 19.986c-1.666 15.664-5.381 27.16-14.448 52.49-4.25 9.753-5.788 16.015-7.229 29.424-1.006 9.369-3.014 22.87-4.46 30.004-1.593 9.748-3.822 14.26-6.616 16.984-2.645 2.493-17.055 23.486-16.872 29.799.196 6.729.511 6.605 8.507 14.324 5.88 5.676 13.753 10.32 14.962 10.32s3.921 2.63 6.026 5.847l3.828 5.846-6.68 3.47c-6.198 3.219-7.006 3.3-11.218 1.121-3.31-1.711-9.533-2.347-22.986-2.347-16.961 0-19.355-.374-29.713-4.646-14.445-5.956-17.476-5.903-22.225.388-9.51 12.597-14.74 24.85-15.837 37.104-1.037 11.576-.957 11.988 2.623 13.5 10 4.228 37.496 10.932 44.187 10.774 4.131-.098 23.54-3.532 43.129-7.63zM177.376 599c-4.181-1.268-9.572-2.306-11.981-2.306-3.476 0-4.813-1.038-6.483-5.033-2.875-6.88-6.047-9.152-14.034-10.052l-6.802-.767-2.665-11.044c-1.466-6.074-3.242-12.143-3.947-13.486-2.07-3.939 11.563-52.512 18.65-66.449 1.522-2.993 5.63-13.048 9.128-22.344 3.507-9.317 8.77-19.993 11.727-23.789 5.871-7.536 7.075-10.7 10.903-28.67 4.316-13.32 10.687-24.906 15.375-38.223 5.46-17.6 15.064-21.573 16.637-21.504 24.566 1.656 39.146 6.996 45.023 9.22 1.925 1.002 3.702 1.988 3.95 2.191s-.933 2.722-2.623 5.598c-5 8.507-20.026 46-22.005 49.572l-6.152 7.294-5.995 7.352c-9.66 15.232-9.977 23.124-1.308 32.53 7.094 7.696 13.059 11.405 18.586 11.56 2.295.063 6.378 3.227 11.49 8.904l7.928 8.805-5.606 8.43c-5.336 8.027-6.2 8.622-17.994 12.39-6.813 2.177-13.26 4.521-14.323 5.21-1.376.89-1.936 6.758-1.936 20.274v19.021l-9.414 2.85c-9.355 2.833-9.45 2.92-14.922 13.788-4.378 8.693-12.29 21.093-13.401 21.002-.112-.01-3.625-1.055-7.806-2.323zm125.83-119.49c-.82-.998-4.175-2.268-7.457-2.823-7.609-1.285-9.09-3.152-16.209-20.428l-5.861-14.225 3.9-6.68c2.145-3.675 6.68-11.56 10.078-17.521s10.532-17.46 15.854-25.552c16.813-25.562 24.714-41.72 24.675-50.458-.038-8.452-4.673-20.303-8.517-21.778-33.41-14.174-46.234-23.432-73.009-34.077-5.819-1.484-11.169-3.184-11.889-3.778s2.194-6.22 6.475-12.501c5.234-7.68 7.182-15.273 10.329-21.558 3.245-6.48 3.472-6.657 7.154-8.903 2.622-1.6 5.23-1.507 8.14-2.468 4.149-1.369 8.804-.459 16.584 1.375 5.458 1.287 14.005 2.35 18.992 2.362 7.81.02 9.92.697 15.205 4.883 5.787 4.584 6.68 4.809 15.728 3.964 13.205-1.233 14.6-1.996 18.796-10.276 2.756-5.439 5.276-7.98 10.045-10.13 11.46-5.169 11.465-5.22-4.66 54.942-1.483 5.536-5.556 21.216-9.05 34.843s-7.743 28.262-9.443 32.52c-6.307 15.803-22.97 82.083-29.727 118.24-1.966 10.521-3.815 17.49-4.11 15.486s-1.205-4.46-2.024-5.457z"/></svg>