<svg viewBox="0 0 1548.1006 1657.1896" xmlns="http://www.w3.org/2000/svg"><path d="M568.8 268.18c1.193-16.368 7.242-30.408 19.461-41.693 9.572-8.84 18.48-18.462 30.176-24.679 2.438-1.296 3.686-3.283 4.598-5.821 3.512-9.77 7.972-18.916 17.47-24.434 1.946-1.132 2.99-3.03 3.462-5.067 1.058-4.57 5.84-7.318 5.624-12.714-.081-2.01 3.348-3.56 5.542-3.46 4.241.192 5.238-2.537 5.845-5.526.87-4.287.58-8.024-1.69-12.503-4.73-9.331-6.902-19.69-5.59-30.427.422-3.454 1.211-7.02.746-10.385-.556-4.024 1.091-6.36 4.18-7.924 3.778-1.914 5.054-5.03 5.706-8.928 2.94-17.571 11.463-30.729 27.906-39.279 6.849-3.561 13.928-4.117 20.825-6.24 4.333-1.332 8.767.13 12.715 2.47 2.428 1.44 4.904 2.816 7.847 2.515 18.446-1.887 27.942 10.113 36.142 23.66 3.74 6.179 5.899 13.232 7.534 20.247 1.308 5.61.811 49.984-2.551 51.485-5.796 2.587-7.587 7.592-9.744 12.728-3.861 9.195-9.32 17.698-11.417 27.669-.917 4.357-4.193 7.113-8.26 8.876-3.845 1.666-7.65 3.42-11.48 5.12-4.787 2.122-5.014 2.797-1.412 6.76 2.185 2.404 4.77 4.44 7.1 6.718 6.276 6.143 5.946 8.68.622 15.74-4.325 5.734-6.034 13.612-3.388 19.73 8.726 20.184 14.317 42 28.995 59.298 3.312 3.904 6.077 8.322 9.67 11.93 8.503 8.538 10.58 18.898 9.153 30.237-1.634 12.98-2.018 25.986-1.6 39.027.219 6.776.665 7.018 7.354 6.342 5.27-.534 20.159-3.88 21.359-1.338 1.925 4.077 5.728 5.229 9.493 6.394 5.128 1.586 10.17 3.317 14.907 5.904 4.952 2.704 8.697 6.281 9.406 12.186.29 2.426 1.29 4.399 3.168 5.478-.277 2.297-1.89 2.237-3.033 2.925-11.186 6.733-13.233 21.845-3.417 29.343 11.475 8.767 21.12 19.892 33.612 27.24 14.016 8.246 27.904 16.735 42.332 24.292 11.94 6.254 23.314 13.568 35.647 19.112 3.033 1.364 6.158 2.02 9.383 2.507 1.684.254 3.942.421 4.598-.847 3.015-5.833 9.28-7.46 13.94-11.048 8.607-6.63 13.968-16.186 22.298-23.03 7.519-6.178 15.77-10.929 24.938-13.708 12.364-3.747 24.087-8.113 33.637-17.459 5.479-5.361 12.309-9.153 20.183-10.5 1.8-.308 3.831-.806 5.192-1.911 12.178-9.887 27.9-12.757 40.94-20.798 10.214-6.3 22.008-8.79 32.402-14.47 7.91-4.323 15.661-8.945 23.351-13.65 4.22-2.58 8.62-4.618 13.376-5.857 3.886-1.013 7.421-2.637 10.686-4.981 7.1-5.097 15.148-5.917 23.34-4.1 5.508 1.22 10.68 2.497 16.404.759 3.486-1.059 7.366-.35 11.038.643 4.131 1.117 7.855.466 10.571-3.287 2.135-2.949 5.17-3.71 8.638-3.494 4.663.289 9.285.052 13.898-.89 3.679-.751 7.485-.845 11.01.669 3.845 1.65 7.323.845 10.625-1.138 7.723-4.638 16.144-5.78 24.902-5.092 5.628.442 11.204-.096 16.713-.887 4.096-.587 7.44.1 9.997 3.283 4.265 5.309 9.924 6.245 16.255 5.896 8.349-.461 16.723-1.094 24.986 1.06 3.075.802 4.894-1.131 6.025-3.595 1.842-4.015 3.422-8.15 5.165-12.212 4.285-9.98 11.163-17.655 20.75-22.764 4.46-2.377 8.92-1.986 11.71.777 3.233 3.203 2.214 6.837.651 10.362-6.438 14.512-4.425 28.96.286 43.377.724 2.218 2.248 3.467 4.82 2.764 7.773-2.127 15.933-2.933 21.989-9.522 4.92-5.354 11.42-8.588 18.27-11.261 7.575-2.957 14.17-.736 20.64 2.693 4.565 2.42 5.423 7.093 1.35 10.206-12 9.173-13.438 23.571-17.67 36.211-2.346 7.003 2.821 14.428 8.418 19.596 6.355 5.867 7.792 13.794 9.213 21.342.84 4.465-.893 9.625-.261 14.474 2.212 16.973 1.982 33.87-1.062 50.731-.495 2.743-.206 5.728-4.208 6.09-2.37.215-2.782 2.545-2.792 4.162-.097 14.5-6.025 28.195-5.782 42.718.093 5.583-3.242 10.133-4.83 15.177-3.267 10.373-3.18 21.093-4.971 31.588-2.412 14.125-.838 28.298.071 42.423.401 6.234 1.546 12.461 2.849 18.586 2.21 10.387 1.085 20.895 1.356 31.33.102 3.928-3.776 29.494-5.822 39.04-3.118 14.545-3.84 29.451-6.946 44.005-2.56 11.997-9.43 19.62-21.414 22.05-9.468 1.92-17.306 5.498-23.18 13.862-5.042 7.18-13.122 9.135-21.824 7.913-5.224-.733-10.808-.045-15.17-4.031-1.197-1.094-3.154-1.917-3.552-3.231-2.038-6.72-8.048-7.94-13.36-9.868-4.688-1.702-8.357-4.347-12.154-7.603-3.584-3.072-8.401-5.62-12.88-7.115-5.683-1.898-11.736-3.796-18.237-2.64-6.47 1.15-12.71-.07-19.05-2.589-10.126-4.024-19.496-9.843-30.126-12.628-1.345-.352-3.04-.658-3.534-2.003-1.96-5.352-7.046-6.42-11.326-8.552-23.742-11.83-47.51-23.609-71.269-35.404-1.25-.621-2.475-1.307-3.759-1.85-5.058-2.144-6.92-1.708-9.624 3.274-6.772 12.479-13.492 24.995-19.865 37.68-3.007 5.984-7.297 11.382-8.614 18.193-2.145 11.099-1.296 22.23-.586 33.375 1.021 16.023 4.395 31.74 6.115 47.658 1.344 12.435-1.487 24.642-5.437 36.304-3.722 10.993-8.131 21.79-13.044 32.372-3.78 8.144-8.823 15.29-14.616 22.008-1.836 2.13-3.673 4.254-4.536 6.967-5.671 17.835-17.369 31.06-32.04 42.022-4.686 3.501-5.7 5.828-2.675 10.5 13.59 20.992 21.362 44.944 34.069 66.356 4.255 7.17 8.125 14.58 13.18 21.285 1.93 2.56 3.596 5.59 4.429 8.663 3.494 12.889 11.2 23.394 18.972 33.77 10.88 14.529 20.07 30.125 29.813 45.379 3.676 5.756 6.167 11.996 8.319 18.399 2.383 7.091 5.424 13.834 9.458 20.16 4.42 6.934 6.847 14.755 9.467 22.472 1.687 4.97-.878 9.623-1.185 14.45-.19 2.976-1.112 5.94-1.967 8.831-2.531 8.556-1.187 17.186.66 25.42 3.046 13.573 5.624 27.241 8.474 40.847 2.008 9.59 4.379 19.072 7.513 28.275 4.51 13.243 7.014 26.955 10.535 40.42 1.308 5 3.852 9.443 5.162 14.415.808 3.063 1.277 5.855.203 8.834-3.116 8.648-2.339 17.203-.262 26.022 2.706 11.492 6.303 22.609 10.495 33.638 4.178 10.992 5.068 22.58 2.41 34.15-.675 2.942-.439 5.48.494 8.142 3.684 10.51 4.907 21.757 9.594 31.966.096.209.157.443.186.672 2.106 16.6-1.2 19.304-15.583 17.96-12.532-1.17-23.78-6.084-33.568-14.197-10.024-8.31-20.054-16.62-30.294-24.657-6.317-4.959-10.712-11.624-16.306-17.204-2.004-1.999-2.555-4.592-1.508-7.12 2.237-5.401 3.08-11.048 3.618-16.791.834-8.896 7.303-14.122 13.001-19.833 1.313-1.317 2.868-2.398 4.133-3.755 3.555-3.813 2.928-7.381-2.003-8.885-5.08-1.549-7.607-4.221-8.158-9.722-.361-3.608-3.366-6.574-5.705-9.431-4.058-4.958-5.754-10.456-5.332-16.833.828-12.53-1.375-24.955-1.538-37.457-.02-1.619-.506-3.372-.044-4.832 2.148-6.794.465-13.224-1.37-19.7-.955-3.372-1.639-6.83-1.352-10.352.994-12.21-1.103-24.059-3.636-35.937-2.078-9.741-3.751-19.492-6.697-29.106-2.253-7.357-1.702-15.55-4.213-23.149-1.622-4.908-3.635-9.514-6.313-13.898-6.789-11.115-13.51-22.272-20.272-33.404-7.212-11.874-17.04-21.588-27.26-30.64-13.903-12.314-28.92-23.359-43.17-35.296-5.857-4.907-10.915-10.76-16.406-16.113-12.297-11.986-23.316-25.262-36.643-36.21-11.057-9.084-24.088-14.954-36.26-22.205-3.003-1.789-5.937-3.52-8.612-5.758-5.102-4.267-7.903-4.258-13.527-.562-3.02 1.984-5.837 4.452-6.873 7.68-3.258 10.148-10.662 18-14.68 27.678-.443 1.066-1.234 1.994-1.636 3.07-10.428 27.874-24.7 54.164-34.184 82.41-5.835 17.377-11.54 34.837-16.23 52.544-2.437 9.207-4.363 18.488-8.165 27.278-.906 2.096-1.491 4.393-1.291 6.799 1.258 15.144-5.62 27.476-13.71 39.365-1.309 1.923-2.786 3.735-4.246 5.55-3.644 4.527-6.71 9.193-8.422 14.988-1.488 5.033-5.198 9.37-7.048 14.342-6.622 17.8-12.018 35.974-15.934 54.594-1.098 5.223-2.225 10.437-3.223 15.684-.531 2.792-1.153 5.733-.306 8.293 1.62 4.896 1.93 9.499-.387 14.187-.354.717-.838 1.373-.286 2.455 4.061 7.962 2.619 16.909 4.32 25.315a45.023 45.023 0 0 0 3.509 10.54c1.551 3.26 3.133 6.257 3.409 10.308.247 3.633 3.684 7.33 6.345 10.463 6.472 7.618 13.008 15.207 20.291 22.09 2.281 2.155 3.938 4.697 4.264 7.812.964 9.21 7.11 15.301 12.984 21.441 2.245 2.346 5.077 4.213 6.418 7.247 3.8 8.594 9.749 15.763 15.097 23.336 1.58 2.237 3.969 4.43 2.19 7.498-1.946 3.358-5.363 4.552-8.978 4.295-3.918-.279-7.78-1.278-11.683-1.855-13.822-2.046-27.203-6.023-40.63-9.659-10.578-2.865-21.484-2.734-32.104-4.847-3.194-.635-6.44-1.01-9.628-1.672-3.032-.628-6.353-1.796-7.696-4.427-4.658-9.123-11.122-17.743-9.684-28.944.371-2.889 1.83-5.239 3.443-7.54 2.003-2.859 3.656-5.735 4.156-9.406.906-6.647-1.246-11.289-7.784-14.012-3.567-1.486-4.594-5.302-7.212-7.18-2.552-1.832-6.862-.01-9.783-2.467-2.894-2.434-5.402-5.162-6.222-9.018-.24-1.135.101-2.597-.497-3.42-5.714-7.86-5.176-16.945-5.792-25.976-.64-9.38 1.188-17.775 6.06-25.777 2.86-4.699 5.567-9.524 6.855-15.06.942-4.048 2.612-7.947 4.16-11.83 3.78-9.487 7.469-18.955 8.676-29.24.43-3.673 2.097-7.366 4.426-10.173 6.414-7.73 8.224-17.167 10.123-26.432 1.41-6.878 3.5-13.49 5.536-20.15 3.021-9.883 4.433-19.884 3.734-30.27-.686-10.193-.106-20.434-1.65-30.622-1.578-10.415 1.607-20.492 4.614-30.134 3.629-11.637 5.149-23.602 7.805-35.372 5.33-23.623 7.595-47.693 10.08-71.736 1.145-11.082 3.793-22.032 4.578-33.124 1.104-15.603 6.046-30.527 7.49-45.943 1.351-14.41 2.183-13.49-11.365-15.638-10.798-1.711-21.388-4.55-30.99-10.19-7.437-4.368-15.972-4.74-24.163-6.144-3.965-.68-7.688-1.705-11.327-3.294-1.914-.835-3.818-1.847-5.834-2.263-8.704-1.8-10.233-.332-11.145 8.521-.593 5.76-1.731 11.515-3.209 17.12-2.732 10.363-3.902 20.94-4.818 31.546-.408 4.73-2.1 9.06-3.236 13.548-3.491 13.785-3.685 28.08-6.757 41.924-1.86 8.381-3.537 16.807-5.083 25.252-2.044 11.161-3.936 22.34-4.818 33.683-1.241 15.963-2.775 31.904-4.258 47.848-.17 1.834-.717 3.653-1.263 5.425-.472 1.534-.965 3.2-3.122 3.172-2.466-.032-3.122-1.88-3.396-3.72a46.988 46.988 0 0 1-.511-7.639c.185-11.18 2.852-22.097 3.44-33.28.412-7.823.948-15.713 2.001-23.548.678-5.04.942-10.262 2.065-15.166 2.807-12.262 3.022-24.828 5.112-37.159.63-3.718 2.205-7.112 2.83-10.773 3.75-21.961 9.149-43.592 12.97-65.548 1.393-7.999 2.439-16.051 3.908-24.039 1.377-7.485.195-8.317-7.245-8.832-14.836-1.028-29.495-3.496-44.117-6.146-5.481-.993-10.954-1.96-16.374-3.352-5.363-1.379-10.837-1.276-16.518-.744-14.14 1.324-28.337.941-42.326-2.219-4.711-1.064-8.943-2.618-11.1-7.45-.568-1.273-1.477-2.16-3.055-2.553-4.507-1.122-8.899-2.737-13.43-3.732-5.133-1.128-7.198.468-8.302 5.627-3.939 18.408-7.895 36.813-11.82 55.225-.288 1.353-.429 2.744-.553 4.125-.788 8.772-1.967 17.402-4.097 26.046-2.878 11.678-3.6 23.862-7.227 35.438-1.111 3.546-2.09 7.15-3.454 10.598-1.867 4.719-6.956 6.45-11.52 4.18-2.958-1.47-3.727-5.405-1.458-9.828 7.878-15.357 10.237-32.268 13.61-48.84 1.949-9.58 5.377-18.726 7.123-28.356 1.984-10.941 4.27-21.836 6.726-32.7 1.528-6.764 3.79-13.396 4.512-20.366.637-6.16.215-7.248-5.193-9.794-1.262-.595-2.545-1.326-3.89-1.535-11.606-1.807-20.682-9.088-30.922-13.887-23.95-11.223-45.34-26.47-67.205-41.006-3.04-2.022-6.461-2.49-9.765-3.477-1.998-.597-3.642.396-4.788 2.065-1.185 1.724-2.483 3.412-3.387 5.282-3.874 8.005-11.884 9.877-19.055 12.95-1.204.516-2.99.768-4.088.252-5.944-2.799-8 .79-10.487 5.288-4.188 7.574-9.876 14.076-16.533 19.681-5.522 4.65-10.72 9.744-16.574 13.92-5.523 3.94-8.693 8.836-9.51 15.43-.69 5.572-2.224 10.941-4.076 16.21-2.172 6.178-3.574 12.581-3.954 19.028-.363 6.171-1.99 11.89-3.842 17.646-6.056 18.833-10.088 38.091-12.152 57.766-.193 1.848-.273 3.812-.972 5.486-5.443 13.044-2.332 26.69-2.888 40.065-.083 2.005.718 4.123 1.43 6.072 2.189 5.993 2.244 12.217 2.893 18.469 1.222 11.77.428 23.678 2.99 35.375 1.53 6.986 2.778 14.219 2.271 21.423-.664 9.448 2.583 17.759 8.208 24.585 7.744 9.397 11.887 20.468 16.952 31.144 3.397 7.16 6.666 14.346 11.276 20.85 3.385 4.776 5.815 10.092 7.853 15.554 2.528 6.774 5.549 12.982 10.707 18.462 6.499 6.905 11.232 15.365 18.449 21.815 2.723 2.433 3.831 6.348 4.749 9.987 2.84 11.256 5.676 22.515 8.374 33.806.932 3.9 2.242 7.548 4.557 10.857 1.478 2.113 2.632 4.48 2.499 7.143-.217 4.351 1.856 7.57 4.76 10.455.827.821 1.544 1.774 2.45 2.491 9.021 7.148 12.404 16.24 12.941 27.92.592 12.864 3.879 25.642 7.533 38.146 1.683 5.76 2.783 11.577 6.217 16.84 3.535 5.414 2.055 11.726.817 17.694-.36 1.73-1.859 2.573-3.415 3.233-5.9 2.504-11.892 4.06-18.333 2.211-6.044-1.734-12.153-3.247-18.164-5.087-5.139-1.573-10.268-2.978-15.676-3.269-10.202-.55-17.43-7.296-25.042-12.814-2.807-2.035-5.025-4.452-8.67-5.127-2.73-.505-4.983-1.493-4.735-5.476.191-3.064-2.086-5.934-3.843-8.578-2.464-3.708-4.31-7.687-6.04-11.77-1.85-4.365-1.718-8.095 2.31-11.173 3.966-3.03 5.199-6.663 2.9-11.446-1.969-4.095-.279-7.603 2.45-10.87 3.125-3.742 6.18-7.564 8.979-11.553 1.427-2.035 2.772-4.506-.637-6.387-.704-.388-1.51-1.59-1.404-2.286.696-4.578-3.546-6.69-4.849-10.204-1.554-4.192-5.034-6.57-8.07-9.432-2.088-1.967-3.38-4.525-3.488-7.428-.193-5.226-1.764-10.022-4.01-14.675-1.12-2.32-1.992-4.797-1.686-7.414 1.664-14.229-4.44-26.759-8.225-39.887-4.382-15.197-12.786-28.307-19.541-42.306-7.434-15.407-16.637-29.543-26.23-43.569-3.38-4.944-7.74-8.647-12.231-12.311-3.363-2.744-5.816-5.797-6.744-10.222-.805-3.846-2.531-7.456-4.409-10.963-2.525-4.718-5.465-9.435-6.306-14.701-1.23-7.704-5.109-13.702-9.76-19.633-2.812-3.587-5.665-6.562-10.04-8.195-5.539-2.07-8.366-6.117-8.48-12.314-.137-7.422-3.567-14.47-2.884-22.052.082-.907-.286-1.887-1.364-2.168-.995-.26-1.838.164-2.384.986-1.415 2.128-2.945 4.205-4.127 6.46-8.554 16.328-18.247 31.919-30.039 46.119-6.075 7.316-7.328 16.268-9.696 25.024-5.12 18.933-7.384 38.334-9.09 57.682-1.953 22.138-6.532 44.192-4.561 66.55.84 9.525.018 19.232 1.6 28.494 2.287 13.397 6.068 26.532 17.45 36.097 4.552 3.826 9.295 7.676 13.215 12.339 3.628 4.313 7.014 8.568 8.077 14.365.726 3.96 3.36 7.148 5.784 10.234 4.903 6.24 9.021 12.974 13.085 19.756 1.927 3.217 4.465 5.929 6.963 8.71 4.461 4.968 3.79 11.045-1.34 15.166-3.3 2.65-6.976 4.578-10.896 6.166a1955.786 1955.786 0 0 0-30.27 12.551c-3.262 1.386-6.47 1.185-9.515-.08-9.84-4.086-19.868-7.674-28.27-14.76-5.485-4.626-11.149-9.125-17.233-13.081-4.705-3.06-9.19-6.959-5.91-13.786-3.273-11.006 3.486-19.678 6.89-29.091 2.053-5.68 2.351-5.787-3.762-7.085-4.434-.941-7.65-4.128-8.345-7.576-1.152-5.706-4.616-7.221-9.231-8.748-13.05-4.318-16.937-11.412-14.123-25.157.606-2.96.657-5.778.332-8.845-.76-7.164-.415-14.384.28-21.602.756-7.858-2.3-11.608-8.39-11.789-3.231-.096-4.94 1.82-6.613 4.676-2.98-4.528-5.147-8.235-5.54-13.539-.45-6.1-3.216-12.046-5.118-18.014-.968-3.037-2.941-4.46-5.588-1.74-2.884 2.963-4.424 1.135-5.848-1.275-.82-1.386-1.79-2.947-1.859-4.466-.269-5.873-2.69-10.908-5.175-16.067-1.833-3.803-3.404-7.468-7.094-10.004-3.74-2.571-4.228-7.07-5.263-11.075-1.91-7.386-3.63-14.778-7.756-21.4-1.718-2.759-3.81-4.463-6.812-5.548-9.616-3.475-11.668-6.901-10.41-17.289.529-4.37 1.349-8.632 1.205-13.139-.22-6.85-1.366-13.39-3.692-19.783-.879-2.414-1.665-4.841-1.408-7.483 1.104-11.348-.451-22.764.836-34.103.269-2.365.19-4.618-.494-6.896-1.03-3.436-.995-6.884.104-10.322 2.18-6.824 1.77-13.742.885-20.72-1.03-8.127 1.297-16.152.695-24.35-1.123-15.295 2.279-30.477 1.103-45.94-.625-8.225.243-16.928 1.89-25.463 2.364-12.245 3.943-24.742 4.111-37.317.053-3.952.266-7.912.622-11.848.463-5.13.433-10.103-.927-15.206-1.933-7.254-1.155-14.872-.998-22.24.22-10.37.922-20.791 2.458-31.122.728-4.897 2.101-9.564 3.702-14.154 3.064-8.78 5.079-17.86 7.765-26.744 2.464-8.151 3.448-16.877 4.075-25.423.736-10.016 2.637-19.79 4.612-29.557 1.89-9.346 2.018-18.958 4.57-28.192.902-3.26-.11-6.42-.994-9.599-1.543-5.552-1.472-11.11 1.347-16.298 6.777-12.478 11.324-25.997 18.363-38.382 7.693-13.536 14.746-27.405 23.452-40.388 4.786-7.138 9.53-14.279 14.516-21.29 5.027-7.071 10.513-13.553 16.818-19.516 4.955-4.686 10.167-8.785 16.12-12.084 5.499-3.046 10.727-6.55 15.554-10.619 3.937-3.318 8.37-5.761 13.06-7.936 10.503-4.87 20.733-10.1 29.737-17.726 13.165-11.152 27.56-20.321 44.247-25.795 19.252-6.317 37.54-15.136 56.13-23.152a190.642 190.642 0 0 1 8.407-3.413c7.81-2.936 15.457-5.963 22.753-10.314 9.643-5.75 20.922-7.576 31.918-9.628 5.02-.937 10.062-1.793 15.123-2.473 5.335-.716 10.716-.961 15.9.907 8.648 3.116 17.188 3.395 26.46 2.172 9.425-1.244 19.044-2.44 28.91-1.132a75.882 75.882 0 0 0 30.428-2.126c10.953-3.048 22.229-4.922 33.33-7.453 7.676-1.75 8.332-2.654 8.35-10.392.01-5.104-.404-10.093-1.455-15.194-1.298-6.302-.192-12.916.803-19.341.104-.669.33-1.483.794-1.906 7.042-6.408 7.179-14.817 6.956-23.385-.133-5.13 3.157-8.693 6.31-12.07 2.447-2.622 5.175-1.163 7.401.81 4.101 3.635 6.933 8.192 8.675 13.33 1.275 3.76 3.17 6.658 7.168 7.84 3.443 1.018 4.628 4.43 6.875 6.717 4.64 4.718 6.264 4.707 10.68-.203 2.39-2.658 4.15-5.568 4.26-9.312.086-2.94-.312-5.34-3.14-7.181-3.122-2.032-5.625-4.899-7.584-8.115-3.895-6.393-8.523-12.192-13.538-17.748-4.873-5.398-4.74-7.803.33-13.08 4.717-4.91 9.532-9.676 8.99-17.35-1.313-1.109-2.58-.036-3.867.166-3.076.484-3.595-1.329-3.278-3.75.086-.658.507-1.301.875-1.89 5.036-8.07 4.08-16.452 1.276-24.907-5.189-15.648-8.122-31.902-6.511-48.137 1.195-12.04-.217-23.538-1.266-35.283-.452-5.057-1.35-11.265 1.479-14.97 2.868-3.755 3.594-7.78 5.184-11.681 1.158-2.84 1.154-5.942-.826-8.667l.15.142zm-432.91 908.67c0 7.12-.034 12.481.017 17.84.02 2.158.334 4.463 2.846 5.015 2.872.631 4.188-1.543 5.069-3.78.763-1.942 1.175-4.018 1.83-6.006 3.46-10.483.45-20.78-1.121-31.044-1.214-7.926.784-14.609 6.96-19.295 10.358-7.859 17.015-18.932 25.686-28.235 1.509-1.618 2.652-3.719 3.568-5.923 3.05-7.334 6.633-14.356 13.56-18.983 1.473-.984 2.679-1.995 2.967-4.278.805-6.377 3.807-12.217 6.392-17.934 3.42-7.564 7.618-14.88 12.4-21.787 3.327-4.806 5.658-10.13 7.324-15.764 4.937-16.696 4.218-32.146-6.917-46.837-13.906-18.347-24.886-38.709-37.662-57.859-2.674-4.009-3.54-8.39-3.179-13.759.401-5.975 2.28-14.3-7.16-16.905-1.022-.282-1.859-1.371-2.694-2.177-7.475-7.215-12.137-16.06-14.729-26.014-1.428-5.484-3.45-7.982-7.44-7.255-6.528 1.19-12.416 2.345-12.24 9.503.135 5.384.286 10.738 1.868 15.89.787 2.564.907 4.876.222 7.484-.702 2.673-.684 5.526-1.117 8.279-1.483 9.414-.652 18.974-2.255 28.436-1.78 10.512-4.432 20.94-4.057 31.792.37 10.682.985 21.324 2.294 31.934 1.123 9.099 1.589 18.888-1.703 26.938-3.758 9.187 1.12 17.964-1.927 26.535 2.42 12.68 1.218 25.475 1.015 38.217-.193 12.074-1.046 24.156 1.296 36.112 1.288 6.575 2.61 13.173 4.48 19.597 1.739 5.977-.147 12.436 1.804 17.936 2.845 8.017 2.176 16.028 2.604 22.326zm1206.5-447.25c.068-3.973-2.728-6.464-5.35-8.507-6.872-5.354-13.63-10.602-22.134-13.846-23.691-9.038-46.434-20.333-69.428-31.014-6.835-3.175-8.234-2.886-11.522 3.761-5.271 10.652-11.956 20.48-17.442 30.996-3.368 6.456-3.51 7.056 2.928 10.94 7.964 4.805 16.445 8.775 24.28 13.77 20.474 13.048 42.236 23.484 64.76 32.327 15.353 6.027 31.642 9.073 47.426 13.754 4.607 1.367 7.179-.634 7.39-5.493.54-12.453-5.526-21.854-14.842-29.068-3.64-2.82-5.647-5.927-6.834-10.01-.76-2.615.768-5.022.767-7.609zM925.83 534.53c-2.182-4.2-5.248-6.71-8.159-9.371-15.278-13.968-31.741-26.615-46.301-41.376-5.61-5.688-11.924-10.277-18.927-14.091-8.78-4.782-17.424-9.818-26.06-14.857-7.39-4.311-15.206-7.977-20.746-14.98-2.252-2.847-5.573-4.517-9.744-4.45-1.604 10.6 3.421 20.187 3.096 30.444-.22 6.963.883 6.989 8.02 8.651.903.21 1.805.493 2.651.867 6.356 2.812 12.99 4.357 19.89 5.315 7.481 1.04 14.324 3.934 19.767 9.537 6.623 6.817 13.125 13.765 20.751 19.524 6.537 4.936 12.28 10.592 16.645 17.637 2.072 3.344 4.73 6.334 7.209 9.414 1.493 1.855 3.396 3.737 5.903 2.857 6.107-2.145 12.311-1.745 18.534-1.293 3.223.235 4.803-2.326 7.471-3.826zm-476.67 31.785v.082c-6.279 0-12.557-.018-18.836.022-.849.005-1.942-.114-2.192 1.124-.256 1.267.116 2.312 1.405 2.778 1.306.472 2.644.866 3.983 1.236 8.759 2.42 17.01 6.105 25.384 9.583 13.68 5.68 26.757 12.883 41.492 16.075 4.63 1.003 6.332.097 7.402-3.968.988-3.753 2.789-7.16 6.76-8.234 9.86-2.668 18.682-8.318 28.802-10.046 3.262-.557 3.813-2.183 3.312-4.685-.866-4.317-2.017-8.575-3.015-12.866-.819-3.516-2.98-3.945-6.26-3.41-11.866 1.935-23.83 3.292-35.654 5.438-10.368 1.883-21.32.744-31.083 6.078-1.87 1.022-4.546.714-6.855.762-4.88.1-9.764.03-14.646.03zm861.57 126.08c2.11.46 2.602-1.846 2.192-4.8-.286-2.062-1.297-4.159-1.067-6.133.641-5.503-2.876-7.304-7.017-8.71-1.752-.596-3.546-1.171-5.367-1.445-11.738-1.763-22.915-5.54-34.106-9.299a374.067 374.067 0 0 0-14.603-4.576c-1.578-.46-3.492-.438-4.297 1.306-.879 1.901-1.234 4.119.5 5.818.966.946 2.25 1.631 3.49 2.225 14.206 6.804 28.387 13.668 42.68 20.29 5.021 2.327 10.201 4.447 17.594 5.324zm-19.464-35.224c3.518.17 4.565-1.203 2.928-4.123-1.237-2.207-2.65-4.529-4.557-6.106-5.928-4.903-9.155-11.568-12.644-18.107-.653-1.225-1.256-2.506-2.1-3.592-2.909-3.74-5.574-4.012-8.377-.273-3.75 5.005-7.111 10.316-10.425 15.63-1.644 2.637-1.71 4.772 2.125 6.176 10.25 3.752 20.67 6.93 31.119 10.036.663.197 1.368.257 1.93.36zm-799.01-102.93l.26 2.054c4.22.473 8.446.188 12.68-.576 3.854-.695 7.608-1.945 11.635-1.596 5.264.455 9.866-2.193 14.751-3.495 1.26-.336 2.581-1.041 1.668-2.982-.61-1.297-.934-2.604-2.798-2.348-.912.124-1.891-.111-2.769.105-11.816 2.916-23.62 5.883-35.426 8.838zm42.649-52.685c-.375 1.119-.682 1.712-.738 2.328-.033.36.335.757.523 1.137.228-.354.632-.702.644-1.064.02-.62-.204-1.248-.429-2.401z"/><path d="M568.65 268.04c.114.866.23 1.731.319 2.6 0 .012-.473.127-.498.08-.462-.912.064-1.71.33-2.538l-.151-.142z"/></svg>