<svg xmlns="http://www.w3.org/2000/svg" width="964" height="984"><path d="M733.531 88.75c-14.252-.137-27.648 8.619-38.468 18.344-7.097 6.378-10.42 14.734-21.063 16.031-9.899 1.207-19.391-1.22-29-.469-6.369.498-10.56 6.127-17 6.75-8.042.778-15.107-1.276-23-1.094-13.754.319-27.355 4.441-41 5.938-7.401.812-14.406-1.064-22 .281-7.37 1.305-13.923 6.577-21 9.094-16.908 6.012-36.654 11.768-51.969 21.313-6.888 4.292-4.732 13.375-11.062 18.53-5.13 4.18-11.6 5.536-16.969 9.22-17.406 11.946-35.279 30.325-37.813 52.312-1.608 13.962 5.057 28.288 8.813 41 4.514 15.282 9.775 30.633 14.125 46 1.208 4.268.223 8.936 1.531 13 3.15 9.786 13.38 18.324 17.625 28 2.202 5.018.312 10.75 1.688 16 1.225 4.674 2.267 13.741 4.906 17.563 3.4 4.924 9.68 6.172 11.594 12.437 1.563 5.119-5.368 22.242-8.344 27-2.265 3.622-13.609 20.041-18.094 19.375-3.81-.566-4.694-6.518-5.906-9.375-3.41-8.041-8.486-15.916-13.563-23-15.795-22.042-37.838-39.196-62.562-50.125-64.583-28.55-146.215-6.008-185.656 53.125-47.348 70.988-26.172 169.641 47.656 213.563 27.412 16.308 57.555 21.413 89 20.406 25.802-.826 53.621-16.053 74-30.719 6.634-4.774 15.465-19.54 24-20.625 4.294-.545 7.658 7.46 9.531 10.375 3.877 6.037 9.383 9.47 16.469 10.688 9.183 1.578 21.707 3.326 30-1.938 5.988-3.801 11.243-13.323 18-15.188 9.657-2.663 23.387 5.438 33 5.688 9.043.236 17.23-6.009 24-11.25v-1c-.65-9.424 24.455-10.384 30.438-17.219 3.861-4.412 3.975-10.348 2.75-15.781-.766-3.395-3.843-7.508-.907-10.563 2.92-3.035 8.005-2.723 11.719-4.093 6.82-2.516 13.153-6.496 20-9.157 22.99-8.932 45.07-20.371 68-29.312 12.15-4.738 23.912-10.568 36-15.469 3.33-1.35 10.359-5.64 13.375-2.125 4.304 5.017-1.552 18.862-2.188 24.719-1.98 18.221-4.392 36.719-5.437 55-.488 8.533 1.247 20.673-4.563 27.844-3.947 4.873-13.424 5.072-19.187 6.531-12.593 3.19-24.781 8.061-36 14.625-45.114 26.394-73.684 73.23-78.844 125-9.615 96.471 71.876 189.532 171.844 175.281 15.918-2.269 31.599-6.83 46-14.031 15.232-7.616 30.183-17.815 41.906-30.25 14.62-15.509 26.576-34.11 34.282-54 9.371-24.192 12.486-50.174 10.718-76-3.042-44.409-26.69-87.817-61.906-114.75-10.043-7.681-21.315-14.402-33-19.25-5.641-2.341-15.096-3.386-19.563-7.563-4.208-3.935-8.318-14.163-10.875-19.437-2.516-5.189-.848-13.483.22-19 2.586-13.367-.646-33.083 5.655-45.156 1.137-2.178 4.191-2.558 5.844-4.313 4.866-5.166 12.375-14.427 13.5-21.531 2.595-16.385-11.112-39.173 4.219-52-1.6-4.909-3.116-10.36-5.719-14.844-1.059-1.825-4.833-3.675-4.812-5.844.043-4.58 5.9-3.563 7.843-1.156 4.578 5.67 6.094 15.109 8.688 21.844 3.658-.551 6.901-1.226 8-5 5.82 1.662 6.778 12.723 12.906 11.063 3.042-.825 4.975-4.217 5.688-7.063 1.692-6.749 1.106-14.206 2.75-21 1.184-4.889 4.048-8.719 3.531-14-1.101-11.255-13.852-16.44-18.688-25.188-2.006-3.632.058-7.941-1.375-11.812-5.168-13.965-14.348-26.829-21.187-40-3.543-6.823-3.769-14.902-8.969-20.906-8.415-9.715-17.327-19.332-24.531-30.094-2.33-3.481-6.393-6.794-7.313-11-3.8-17.362 3.72-35.61 19.282-43.563 5.943-3.037 16.906-.054 20.312-7.656 1.272-2.838 3.384-13.744.25-15.656-2.209-1.347-16.936 1.405-14.062-6.375 1.065-2.885 5.67-2.694 7.375-5.188 2.582-3.776 2.432-8.613 5.562-12.562 5.322-6.716 13.477-8.379 20.469-12.813 2.765-1.754 5.635-5.712 9-6.156 8.81-1.163 40.517 21.677 41.25-.031.307-9.111-16.415-18.507-22.156-24.156-22.863-22.496-45.25-48.553-75.094-62.719-4.875-2.314-9.718-3.33-14.469-3.375zm-137.468 193c5.195.143 8.517 5.646 13.5 6.906 3.476.88 7.01-1.039 10.437.125 3.887 1.32 5.84 5.152 9.156 7.281 16.365 10.503 29.78 25.617 42.313 40.844 4.218 5.124 13.286 6.96 16.531 12.25 5.128 8.362 3.662 18.422 5.5 26.844.707 3.244 5.865 16.925 8.094 19.313 1.95 2.089 4.973 2.69 6.906 4.906 3.374 3.868 3.667 9.488 6.563 13.625 2.176 3.11 6.024 3.086 8.625 5.594 5.532 5.332 2.25 13.278 1.53 19.562-.702 6.138 2.192 13.55-6.218 15.688-6.572 1.67-14.409-.905-21-1.532-9.709-.925-19.271-.68-29-1.875-11.509-1.413-23.425.194-35-.312-13.952-.611-28.065-2.837-42-2.188-9.812.456-21.137-1.132-31-1.875-3.066-.23-7.362-.867-8.781-4.062-1.197-2.697.574-6.028.531-8.844-.141-9.219-.69-18.847-1.938-28-.414-3.038-3.783-8.923-.437-11.25 3.255-2.265 17.606 6.368 21.625 7.781 2.555.898 7.266.347 7.531-3.219.304-4.082-5.52-7.486-8.531-9-8.462-4.252-20.242-4.656-25.781-13.406-3.66-5.782-3.763-15.67-5.282-22.344-1.918-8.428-7.828-16.107-10.156-24.562-2.067-7.504-.015-15.212-2.031-23-1.525-5.888-11.447-17.683-5.594-22.563 3.888-3.242 14.652.563 19.844.563 18.232 0 34.852-1.146 53-3.188.364-.04.716-.072 1.063-.062zM299.719 406.938c10.874.068 26.239 1.081 28.281 8.062 7.626-1.42 15.708 4.156 22 8.063 18.872 11.714 31.074 28.55 41 47.937 3.055 5.966 11.519 22.333 6.25 28.563-2.608 3.083-6.757 1.899-10.25 2.03-8.537.324-20.188 1.577-28-2.5-9.442-4.926-17.159-12.714-27-17.062-16.104-7.115-37.387-6.816-52.969 2.375-9.168 5.407-11.466 15.695-18.437 22.156-2.862 2.652-7.048 2.155-10.406 3.813-3.222 1.59-5.328 4.673-8.282 6.656-3.816 2.56-12.078 4.957-11.437 10.969.827 7.746 18.813 10.498 24.531 12.75 5.049 1.987 6.7 6.89 9.594 10.969 2.467 3.476 7.222 6.29 8.625 10.375 2.243 6.53-5.975 18.847-11.219 21.906v1c26.523 11.315 56.106 9.849 85 10 7.844.041 15.021 2.065 23 2-4.007 9.381-17.29 16.637-26 21.281-30.688 16.363-68.825 17.766-100 1.625-56.756-29.385-75.22-100.378-46.75-155.906 17.851-34.815 54.925-57 93.75-57 1.966 0 5.094-.085 8.719-.063zm237.031 57.468a9.825 9.825 0 0 1 1.25.031c18.009 1.673 36.001 2.694 54 4.407 9.586.913 19.968.329 29 4.156.631-3.788 11.599-1.369 15-1.25 16.555.579 31.895.523 47 8.25l6 7v2c-8.722 4.638-18.383 10.28-28 12.813-10.491 2.762-31.611 3.959-38 15.187l-5.156-2.563L617 515v-1l-2-1-5 1v-1l3-1v-1c-2.623-.276-5-1.09-5 2h-1c-.1-5.699 6.098-3.354 10-3v4l.844.438L623 511l-3-1v-14h1l2 2-3-7h-1l-5 2c-2.386-4.892-9.836-5.665-15-6-.874-5.058-2.593-8.279-7-11l2 6-4 6c-4.554-1.119-9.26-2.57-12 2l-3-1c.268 4.894 1.653 7.614 6 10l2 10-3-3-4 2-1-7h-4l1 3-4-2 1 6c-3.716-.796-3-3.637-3-7l-4-1-1 1 2 5-8 1c.524-4.092-.451-5.922-4-8l1 8h-6c-.429-7.822-5.65-10.393-13-9-.171 3.726-3.738 7.157-7 4h-1l-1 4h3v1l-8-1c-.565-3.765-3.717-3.524-7-4v4l-4-3 4-1v-2l-6-2c2.724-9.189.426-21.82 14-21-.098-6.44 10.222-12.366 16.75-12.594zm171.438 11.75c2.875-.054 5.643.702 7.812 2.844-5.055 3.594-9.101 2.795-13-2 1.701-.482 3.462-.811 5.188-.844zM602 488l1 1-1-1zm-18 11h7l1 13h-1c.284-3.447-1.251-4.818-4.156-5.75L586 507.5v1.5h-1l1-1.5V506c.299.082.57.162.844.25L589 503v-1l-5-3zm-50 3l1 2h-2l1-2zm11 12h4v5l10 3-4-7h4c3.22 9.059 11.572 6.121 19 9l-1-5 10.281 5.781L609 523c-3.203 4.885-11.525 7.423-17 9l1 4-10 3c-7.303-3.535-18.93 9.084-27 9.281-10.441.254-13.572-11.616-20-17.281l2-2-4-5c-4.134-.547-3.954-5.427-4-9l19 7-4-8zm-37.281 4.813c8.169-.413 19.159 18.906 11.844 23.093-6.413 3.67-25.866-17.584-13.438-22.75a4.743 4.743 0 0 1 1.594-.343zm-56.406 8.53c2.856.127 3.627 4.493 3.25 7.657-.618 5.173-10.747 23.416-17.407 20.75-3.795-1.519-2.136-6.841-1.562-9.75 1.314-6.651 3.471-21.771 13.406-18 .893-.49 1.653-.685 2.313-.656zm-93.375 6.563c3.51.004 7.139.646 9.718 2.5 4.396 3.161-2.382 8.606-5.656 9.188-7.339 1.304-24.348-8.634-10-11.157a34.568 34.568 0 0 1 5.938-.53zm145.218 4.282c5.08-.215 9.652 8.735 2.813 10.875-6.503 2.034-9.69-8.983-3.813-10.72.34-.1.662-.141 1-.155zM734 545l1 13-5.313 40L725 614l9-69zm-204.313 9.219c5.588.097 6.46 6.363-.687 8.312-7.592 2.071-9.376-5.952-2-7.968a9.55 9.55 0 0 1 2.688-.344zm-197.343 4.25c11.74-.636 24.457 13.627 32.656 19.437 3.477 2.464 8.173 7.973 1.938 10.5-6.17 2.5-17.485-.4-23.938-1.218-15.062-1.91-32.338 1.768-46.938-2.22-2.885-.787-9.025-14.155-7.312-16.5 2.37-3.242 8.995-1.258 12.25-.905 12.078 1.308 18.4-6.258 29-8.75a13.453 13.453 0 0 1 2.344-.344zM700 661c-4.491 21.768-2.354 45.763-7.781 67-1.08 4.224-4.501 6.496-6 10.281-1.277 3.228.61 6.357-1.25 9.719-1.69 3.053-6.1 6.191-5.844 10 .294 4.376 5.938 6.447 6 11 .044 3.299-2.977 6.062-4.125 9-1.825 4.672-1.946 13.258-.281 18 4.164 11.863 13.461 26.183 25.281 31.5 25.829 11.617 57.079-7.219 64.563-32.5 4.452-15.039 5.1-36.253-7.594-47.563-4.915-4.376-10.185-9.058-15.969-12.25-3.731-2.058-8.471-2.842-10.25-7.218-2.578-6.345 1.138-14.572 1.969-20.969 1.98-15.245 2.538-30.713 4.281-46 16.886 1.379 33.906 11.275 47 21.438 67.746 52.587 57.312 167.702-20 205.812-12.176 6.002-26.312 10.587-40 10.75-53.069.631-100.417-28.292-116.563-81-15.759-51.444 1.365-109.94 46.563-140.656 11.477-7.8 25.953-15.197 40-16.344z"/></svg>