<svg viewBox="0 0 640 480" xmlns="http://www.w3.org/2000/svg"><path d="M401.57.056c-2.32-.087-4.64 2.232-6.96 2.662-2.65.49-9.71 13.258-10.594 15.71-.883 2.453-7.114 11.763-7.114 11.763s-4.816 6.929-8.351 13.307c-3.535 6.377-8.893 8.327-8.893 8.327s-3.513 1.938-8.816 2.919c-5.302.981-15.046 4.869-19.023 4.378-3.976-.49-17.2 6.415-22.503 9.358-5.302 2.944-11.909 9.333-15.002 12.277-3.093 2.944-7.578 3.95-7.578 3.95s-10.14 4.402-11.909 4.893c-1.767.49-5.291 5.36-4.407 7.812.883 2.453-3.558 5.409-3.558 5.409s-7.036 4.378-10.13 7.812c-.754.837-1.092 1.964-1.16 3.177L12.843 48.392s-2.684-14.717-5.335-13.736C4.856 35.636.006 39.5.006 41.953c0 2.453 1.315 13.307 1.315 13.307s7.08 3.397 7.964.944c.881-2.444 245.64 63.15 247.37 63.616.59 1.793 1.23 3.402 1.392 4.121l-2.242 7.297s6.639.552 7.965 3.005 8.428 10.731 8.428 10.731l7.037-4.378 6.65-.515s9.689-5.863 10.13-9.787c.442-3.925 5.8-13.221 5.8-13.221l9.666-.515.464 12.277s-3.513 3.434-5.722 3.434-3.977 2.428-6.186 6.353-1.315 5.887-1.315 13.736c0 7.849-.928 6.905-4.021 9.357-3.093 2.453.464 8.328.464 8.328s-3.524 12.73-4.408 16.655c-.884 3.924 4.441 19.169 6.65 23.094 2.21 3.924 10.13 26.957 10.13 26.957l-2.629 12.792s-7.512.981-9.28 0c-1.767-.981-6.65 7.812-6.65 7.812l-122.87-82.417-2.629 4.894 121.95 88.34 67.198 49.537s-12.859 10.78-13.3 8.327c-.441-2.453-4.85-9.836-7.5-10.817-2.652-.98-8.827 13.246-10.594 13.736-1.768.49-11.058 6.868-11.058 6.868l-132.54-50.05 1.314 11.331 185.12 73.06 122.02 54.944s38.001 26.552 46.397 33.911c8.396 7.359 29.153-3.004 29.153-3.004s47.27 17.23 53.898 16.74c6.628-.49 15.466-12.791 15.466-12.791l-8.815-2.49s-20.37-3.851-25.673-1.889c-5.303 1.962-37.582-15.71-37.582-15.71l-77.328-36.316-85.68-69.196 7.037-8.327 24.358-33.396 28.225-31.336c3.093-3.434 3.148-2.968 5.8-7.384s-1.337-7.383-1.78-10.817c-.441-3.434-2.209-1.925-3.092-4.378-.884-2.453-2.254-5.899-4.021-8.843-1.768-2.943-3.966-3.409-7.501-6.353-3.535-2.943-8.86-2.943-12.836-3.434-3.977-.49-6.186-2.49-6.186-2.49s2.253-2.428 4.02-6.352c1.768-3.925 6.143-4.894 8.352-4.894s4.916-9.37 5.8-11.332c.884-1.962 1.336-8.278 1.778-10.73.442-2.454-2.275-5.41-4.485-8.843-2.21-3.434-4.363-2.453-6.573-3.434-2.209-.982-8.44-2.98-13.3-2.49-4.86.49-10.605-2.894-15.466-2.404-4.86.49-10.163-2.526-12.373-1.545-2.209.981-5.313-6.807-1.778-10.731 3.535-3.925 1.834-3.495 4.485-6.439s8.362-11.283 10.13-13.736c1.767-2.453 1.348.05 3.557-2.404 2.21-2.453 9.688-2.465 13.223-1.974 3.535.49 7.114-.981 10.207 0 3.093.98 6.617.478 10.594 1.46 3.977.98 8.838 3.433 15.466 6.867s11.92 2.478 16.78 3.95c4.86 1.471 7.534 1.913 15.93 2.403s10.152 1.975 13.687 1.975 12.373 3.434 12.373 3.434l9.666-.43s4.272-.317 8.738-.6c-2.242 12.308-38.742 212.48-38.742 212.48s-12.373-1.963-12.373 0 .862 8.854 2.63 10.817c1.767 1.962 6.65 3.434 6.65 3.434l-1.779 22.064 3.557.944 1.779-23.008 6.186-3.95s1.281-7.309-.928-9.271c-2.127-1.89 35.131-198.78 37.968-213.77 1.144-.058 3.066-.172 3.557-.172 2.652 0 4.01-1.472 5.336-3.434s4.85-5.36 4.408-7.812 3.093-3.434 3.093-3.434 4.882-1.018 3.557-5.924-.497-.932.387-5.838c.883-4.906-1.735-3.949-3.944-7.383-2.21-3.434-4.43-1.962-7.965-3.434-3.535-1.472-6.208-.54-9.743-1.03s-3.535 1.52-9.28 1.03c-5.744-.49-7.037 3.949-7.037 3.949s-14.107-1.484-19.409-1.975c-5.302-.49-11.058-4.905-14.15-6.868-3.094-1.962-9.313-.98-11.523-3.434s-6.595-4.905-7.037-6.868c-.441-1.962-23.906-12.767-25.673-15.71-1.767-2.944-4.385-2.478-7.036-3.95s-14.571-3.459-16.78-3.949c-2.21-.49-3.116 1.03-3.558-2.404-.441-3.434.917-4.464 2.243-7.898 1.326-3.434 3.07-4.894 5.722-8.328s1.348-6.316 3.557-10.73c2.21-4.416.41-5.47.85-11.848.443-6.377-.894-4.893-1.778-11.762-.883-6.868-3.977-4.918-6.186-8.842s-5.291-4.415-10.594-6.868-7.479-2.882-10.13-3.864c-.331-.122-.674-.245-1.005-.257zm-33.483 266.65l17.244 1.46 7.965 6.868-17.244 12.277-7.965-20.604zm65.42 113.75l19.873 15.711-22.58-9.787 2.707-5.923zm96.738 58.894c1.768 0 18.559 9.358 18.559 9.358l-3.557 4.378-15.002-13.736z"/></svg>