<svg width="396.39" height="351.95" viewBox="0 0 396.386 351.952" xmlns="http://www.w3.org/2000/svg"><path d="M309.08 283.64c-2.447-2.385-5.406-7.167-5.406-7.167.594-11.066-6.344-16.717-8.72-16.484-1.774.168-15.073 6.164-15.073 6.164l-20.176-12.78c-9.027-10.501-24.598-13.68-24.598-13.68-8.7-.852-7.271-2.317-7.271-2.317-7.368-9.084-11.05-38.493-11.05-38.493-1.433-5.295-.062-4.831-.062-4.831l8.136-.106.4-6.28c5.967-23.745-9.229-46.719-9.229-46.719 17.875-6.035 35.446-16.881 35.446-16.881 9.584-5.438 5.674-9.736 5.674-9.736-1.549-7.222-18.617-20.037-21.061-22.422-5.26-5.131-12.031-12.405-12.031-12.405l-25.688-13.66c-4.653-7.667-.145-10.624-.145-10.624 13.218-7.91 7.141-24.246 7.141-24.246 9.246 6.157-3.949 20.999-3.949 20.999-1.278 13.05 19.491 23.709 19.491 23.709-12.683-9.965-3.182-21.689-3.182-21.689 9.966-14.125 4.024-25.155 4.024-25.155-8.861-12.931-19.35-2.656-19.35-2.656s-2.85-4.534-4.415-5.25c-1.756-.807-16.448-2.679-16.448-2.679-11.096 1.101-9.037 11.224-9.037 11.224-4.317 2.036-2.349 13.147-2.349 13.147-1.042 3.121-4.341 6.448-3.185 6.903 1.025.391 2.93 1.168 2.93 1.168-.713 9.365.609 10.694 1.33 11.033 1.826.891 7.496.494 7.496.494 4.434 7.187-3.75 8.743-3.75 8.743-17.365 1.678-17.136 19.053-17.136 19.053-5.331-1.855-12.476 6.451-12.476 6.451l1.422 35.233c6.43 11.982 11.16 3.718 11.16 3.718l9.878-19.931c7.442 15.358 7.729 37.567 7.729 37.567-.749 16.917 6.312 39.997 6.312 39.997l-18.892 32.607c-9.517 11.23-1.184 20.779-1.184 20.779 3.914 40.994-3.041 63.303-3.041 63.303l-3.365 1.007c-4.254 7.296-15.367 6.955-15.367 6.955-9.185-.842-7.184 4.932-7.184 4.932 6.906 11.014 16.522 7.51 16.522 7.51 4.809-1.514 7.751 2.32 7.751 2.32 11.156 3.707 14.949-2.141 14.949-2.141 2.791-7.752-.211-15.922-.211-15.922.407-5.815 5.951-25.201 5.951-25.201 4.67-12.605 1.778-49.746 1.778-49.746l13.825-13.228 12.327 19.637c2.095 12.524 15.606 11.395 15.606 11.395 6.807 3.769 27.666 11.23 27.666 11.23 8.701.371 33.036 15.019 33.036 15.019 1.981 4.321 6.842 6.183 6.842 6.183 10.155.852 14.147 10.943 14.147 10.943 3.469 7.19 6.338 5.232 6.338 5.232 6.162-9.253-.276-22.226-.276-22.226zm-86.756-183.11l19.357 12.789s-13.193 15.751-26.201 18.091c.001.001 1.485-25.006 6.844-30.88z"/></svg>