<svg viewBox="0 0 793.7 1122.5" xmlns="http://www.w3.org/2000/svg"><path d="M254.05 247.3c-26.314 0-47.754 21.441-47.754 47.803v366.49c0 26.362 21.44 47.803 47.754 47.803h366.54c26.313 0 47.754-21.441 47.754-47.803v-366.49c0-26.362-21.441-47.803-47.754-47.803H254.05z" fill="#fff"/><path d="M377.53 372.82c20.564 0 37.18-16.714 37.18-37.278s-16.617-37.229-37.18-37.229c-20.564 0-37.229 16.665-37.229 37.229s16.665 37.278 37.229 37.278"/><path d="M240.16 576.32c8.723 0 17.104-1.998 24.609-5.36 7.699-3.557 16.421-5.653 25.485-5.653 9.015 0 17.737 2.096 25.388 5.653 7.553 3.362 15.983 5.311 24.803 5.311 8.771 0 17.152-1.949 24.705-5.311 7.651-3.557 16.373-5.653 25.437-5.653 9.063 0 17.688 2.096 25.485 5.653 7.456 3.362 15.934 5.311 24.657 5.311a60.39 60.39 0 0 0 24.706-5.311c7.748-3.557 16.421-5.653 25.534-5.653 9.014 0 17.688 2.096 25.387 5.653 7.553 3.362 15.984 5.311 24.755 5.311 8.82 0 17.201-1.949 24.754-5.311 7.651-3.557 16.373-5.653 25.388-5.653 7.748 0 15.301 1.462 22.074 4.142 11.062-12.084 17.932-28.165 17.932-45.805 0-37.473-30.358-67.831-67.83-67.831l-7.602.78c-8.333 33.867-42.151 35.28-42.151 35.28l-154.86-.049-12.962-7.602 31.235-52.383 34.159 19.735c20.466 13.254 31.138-5.36 31.138-5.36l34.256-55.844c14.863-24.267-16.714-43.71-31.527-19.345l-23.975 39.129-57.013-31.527c-39.471-22.026-56.233 14.472-56.233 14.472l-44.782 76.699c-7.602 15.935-.829 22.806-.829 22.806l-22.123-.049v83.765zM620.45 633.38c-12.136 0-23.802-1.949-34.117-5.311-10.721-3.606-22.723-5.702-35.331-5.702-12.474 0-24.542 2.096-35.129 5.702-10.451 3.362-22.048 5.311-34.252 5.311-12.136 0-23.802-1.949-34.253-5.311-10.653-3.606-22.655-5.702-35.128-5.702-12.609 0-24.611 2.096-35.331 5.702-10.317 3.362-22.049 5.311-34.185 5.311-12.07 0-23.801-1.949-34.117-5.311-10.788-3.606-22.723-5.702-35.263-5.702-12.542 0-24.61 2.096-35.197 5.702-10.451 3.362-22.048 5.311-34.184 5.311-12.204 0-23.868-1.949-34.319-5.311-10.586-3.606-22.655-5.702-35.129-5.702-12.542 0-24.61 2.096-35.263 5.702-10.384 3.362-22.049 5.311-34.185 5.311v-37.034c12.136 0 23.801-1.998 34.185-5.36 10.653-3.557 22.721-5.653 35.263-5.653 12.474 0 24.542 2.096 35.129 5.653 10.451 3.362 22.115 5.36 34.319 5.36 12.136 0 23.733-1.998 34.184-5.36 10.586-3.557 22.655-5.653 35.197-5.653a112.84 112.84 0 0 1 35.263 5.653c10.317 3.362 22.048 5.36 34.117 5.36 12.136 0 23.868-1.998 34.185-5.36 10.721-3.557 22.721-5.653 35.331-5.653 12.472 0 24.474 2.096 35.128 5.653a112.457 112.457 0 0 0 34.253 5.36c12.204 0 23.801-1.998 34.252-5.36 10.586-3.557 22.655-5.653 35.129-5.653 12.608 0 24.61 2.096 35.331 5.653 10.315 3.362 21.981 5.36 34.117 5.36v37.034z"/><path d="M430.75 575.73c-8.183 0-16.046-1.998-23.087-5.36-7.223-3.557-15.405-5.653-23.908-5.653-8.457 0-16.64 2.096-23.817 5.653-7.086 3.362-14.994 5.311-23.269 5.311-8.228 0-16.091-1.949-23.177-5.311-7.178-3.557-15.36-5.653-23.863-5.653-8.502 0-16.594 2.096-23.908 5.653-6.995 3.362-14.948 5.311-23.132 5.311-8.228 0-16.183-1.949-23.178-5.311-7.269-3.557-15.405-5.653-23.954-5.653-8.456 0-16.594 2.096-23.816 5.653-7.086 3.362-14.995 5.311-23.224 5.311-8.274 0-16.137-1.949-23.223-5.311-7.178-3.557-15.36-5.653-23.817-5.653-7.269 0-14.354 1.462-20.708 4.142-10.378-12.084-16.823-28.165-16.823-45.805 0-37.473 28.48-67.831 63.634-67.831l7.132.78c7.817 33.867 39.543 35.28 39.543 35.28l145.28-.049 12.16-7.602-9.303 41.617-22.046-44.265c-19.2 13.254 54.788 53.64 4.789 28.64l47.863-8.844c-21.944-5.267 83.68 46.29 38.577 43.655l-63.508-15.871-2.515 10.473c37.03-22.026-1.245 86.472 37.754-18.528l46.012-5.301c7.132 15.935.778 22.806.778 22.806l20.754-46.049v83.765z"/></svg>